<svg xmlns="http://www.w3.org/2000/svg" viewBox="99.5 11.6 312.1 487.4"><path fill="#1C1C1C" d="M273.9 496.1C270.7 481 294.2 482.2 288.9 466.3C301.6 457.7 297.4 432.7 281.8 445.1C262.4 452.5 242.1 456 221.6 457.6C196 453.6 259.9 451.8 228.2 448.6C212.5 449.4 197.1 436.1 187.1 430.9C186.1 443.3 166.3 444.7 168.8 456.1C170.6 477.6 194.9 483 212 487.5C216.7 495.3 188.4 485.1 182.8 481.7C161.9 477.5 172.2 442.1 148.1 454.6C135.7 457.3 133.9 450.2 147.1 450.8C173.7 454 168.5 419.6 179.2 403.4C193.2 387.1 162 394.5 165.5 387.1C176.8 388.2 191.2 390.6 180.1 373.9C170.8 351.4 179.2 327.4 187.9 306.2C192.2 295.5 186 285.7 174.6 289.1C155.7 289.9 134.3 286.7 123.2 269.2C100.7 245.1 94.8 208 109.9 178.5C122.3 148.7 147.4 127.6 168.1 103.9C149.4 99.6 135.1 78.3 147.3 59.8C159.8 38.7 185.3 31.9 205.3 19.8C224.6 8.2 248.8 15 268.5 22.1C291.5 33.5 310.5 51.9 327.7 70.6C340.1 92.1 317.3 108.4 296.9 105.7C264.6 100.6 291.3 139.2 278.3 156.9C270.3 181.3 257.5 203.7 246.2 226.7C252.7 236.2 266.6 246.1 259.9 250.6C272.3 259.6 288.7 260.9 299.6 272.1C311.9 289.7 334.1 279.9 349.8 287.4C355.6 299.2 355.7 315.5 371.9 315.9C376.5 335.1 387.1 350.8 403.9 361.4C423.3 373.2 388.5 387.6 382 384.4C394.3 378.7 414.6 366.7 391.7 359C378.8 345 389.4 372.8 377.2 376.2C368.8 383.9 378.2 398.8 370.5 405.1C360.3 409.3 344.8 429.7 342 426.7C345.6 406.4 375.5 405.3 368.4 382.8C378.2 368.3 385.1 338.4 359.9 336.2C343.1 339.9 327.6 335.7 315.2 324C308.2 319 292.9 320.7 288.7 324C294.1 344.6 290.9 366.4 285.6 386.7C296.1 397.2 307.1 409.9 304.4 425.9C308.8 431.5 332.6 408.8 334.7 417C321.5 427.8 291.6 428.8 305.6 451.2C296.4 460.2 298.7 473.3 296.5 482.9C284.4 479.2 281 501.6 273.9 496.1ZM253.4 448.6C248.7 447 252.7 450.5 253.4 448.6ZM257.7 447.6C251.8 446.7 257.6 449.2 257.7 447.6ZM262.8 446.7C258.2 445.1 262.2 448.7 262.8 446.7ZM176.4 440.4C183.3 433.9 187.3 423.9 182.3 415.3C178.6 404 173.7 435.8 170.4 440.4C167.2 449.2 173.7 443.3 176.4 440.4ZM238.5 444.9C227.4 428.1 244.2 412.4 255.5 401.5C260.1 396.6 268.3 392.3 261.6 385.4C256.9 376.7 241 352.5 234.3 372.1C223.3 383.8 200 385.1 189.7 393.6C190.3 404 188.8 415.1 190.7 424.9C201.8 439.5 220.6 446.2 238.5 444.9ZM253.4 439C259.6 428.6 279.9 411.5 272.1 400.4C263.8 390.7 255.7 410 248.5 414.4C236 420.5 235.1 456.4 253.4 439ZM274.4 439.1C292.8 440.1 285.6 415.4 280.1 405.6C272.3 418.6 265.5 432.2 255.4 443.6C261.9 442.5 268.1 440.7 274.4 439.1ZM299.6 426C306.5 416.3 287.9 390.4 284.7 395.2C296.1 398.6 286.8 435.8 299.6 426ZM186.1 406.3C184.4 406 187.1 412.6 186.1 406.3ZM279.7 386.7C271.2 382.4 283.7 395.1 279.7 386.7ZM202.4 383.7C217.9 381.7 215.2 373.2 202.2 376.3C196.7 381.5 187.5 390 202.4 383.7ZM195.9 374.4C185.3 364.9 186.1 392 192.4 380.2C193 378.9 197.8 376.2 195.9 374.4ZM272.1 380.1C263.5 373.5 277.1 387.3 272.1 380.1ZM285 371.8C286.9 353.7 292.5 330.8 277.4 316.8C271.1 305.3 266.2 304.9 261.9 316.8C263.1 330.7 280.1 346.7 279.9 364C281.5 369.1 279.3 392.7 284.1 376.1ZM276.4 367.8C273.2 354.3 267.7 329.3 256.7 325.5C256.6 341.6 241.1 357.7 262.6 366.6C267.3 371.2 281.8 384 276.4 367.8ZM227 370.7C235.3 363.3 218.1 353.8 213.7 366.8C200.2 375 223.9 374.5 227 370.7ZM186.5 371C198.9 371.5 209.4 369.7 217.4 358.1C226.4 353 212.9 345.5 210.9 339.3C202.3 333.3 193.8 294.4 187.2 319.8C180.8 334.1 174.4 363.5 186.5 371ZM235.4 362.8C232.8 350 220.2 353.4 235.4 362.8ZM227 349.4C228.4 337.3 209.5 321.8 203.9 319.4C211 328.4 217.9 346.8 227 349.4ZM249.2 342.6C253.9 332.4 253.8 325.7 246.1 336.4C233.3 342.7 244.9 358.7 249.2 342.6ZM250.4 325C255.6 310.7 215.9 292.1 218.7 316.4C220.2 322 227.8 326 231.7 331C239.7 343.8 243 332 250.4 325ZM367.3 327.1C348.3 320.3 348.5 286.1 323.3 292.8C300.5 300.3 294.9 274.9 279 266.1C260 269.2 249.2 252.4 233.6 248.2C244.9 263.5 268.7 270.9 271.3 292.3C276.9 314.1 296.9 312.8 314.7 315.2C329.4 332.1 350.5 325.4 368.4 330.5L368.4 329.5ZM261.1 310.1C273.4 301.4 241.3 299.9 250.5 307.4C253.6 311.8 258.1 320.7 261.1 310.1ZM217.3 304.9C217.1 298.3 207.5 280.4 210.9 299.1C210 304.7 216.7 318.5 217.3 304.9ZM244.2 304.8C231.8 299.4 242.1 308.4 244.2 304.8ZM239.2 292.4C234.5 290.7 238.5 294.3 239.2 292.4ZM266.4 289.9C261.2 275.9 240.8 255.6 228.6 257C225 264.3 214.8 286.7 229.3 286.5C240.5 286.5 257.8 296.2 266.4 289.9ZM182.4 284.7C175.7 270.4 150.7 255.4 140.7 237.6C123.5 216.4 113.7 184.2 131.7 160.3C144.3 140.4 159.5 122.5 175.6 105.5C144.8 131.8 112.9 164 106.2 205.8C102.3 235.2 118.7 266.2 143.8 281.2C156 285.4 169.6 285.8 182.4 284.7ZM208.9 276.6C205.5 257.7 202.8 238.3 198 219.8C186.5 228.2 196.3 243.2 196 252.8C178.2 257.4 207.8 298 208.9 276.6ZM183 259.8C178.6 241 172 222.1 184.5 204.4C175.3 186.6 165.6 165.5 174.9 145.6C179 131.8 200.4 119 199 108C179.3 107.3 169.9 135.5 151.7 143.9C127.3 164.7 126.5 204.4 142.6 230.5C152 248.1 167.5 261 182.1 274.1C183.8 269.5 183.2 264.5 183 259.8ZM213.5 263.1C210.9 248 206.4 256.8 212.1 266.4ZM227.1 250.8C222 242.3 214.9 240 223.5 250.9C224.5 256.4 225 255.5 227.1 250.8ZM230.9 244.4C223.3 226.2 239.5 206.9 234.3 188C232.3 172.5 229.3 159.2 238.3 146.3C232.2 140.9 220 165.8 215.4 173C215.4 183.9 225.7 193.7 216.7 204C215.2 214 209.1 228.5 218.7 235.8C221.9 238.1 227.9 247.5 230.9 244.4ZM254.8 201.1C267.9 175 282.9 146.7 276.5 116.4C274.3 104.4 256.7 129.4 250.3 133.6C250.2 148.3 244.2 160.7 247.8 175.1C242.1 184.2 243.1 192.3 248.1 204.3C249.2 213.4 239.9 228 249.7 211C251.4 207.7 253.1 204.4 254.8 201.1ZM201.4 206.9C200 193.7 197.4 230.6 201.4 206.9ZM209.4 193.5C209.3 179.7 202.1 225.6 207.9 201.8C208.5 199.1 209.1 196.3 209.4 193.5ZM128.2 191.2C129 180.9 126.3 173.4 126.4 188.9C125.7 196.8 128.5 213.9 128.2 196.9L128.2 194.1ZM202.3 190.5C209.5 184.5 203.3 164 201.3 181.7C199.3 190.4 192.2 215.7 202.3 190.5ZM189.8 182.6C198.2 162.3 206.2 142.6 218.5 124.5C230.9 111.5 214.9 103.2 205.3 110.3C194.2 129 171.8 144.1 175.3 168.5C175.9 177.2 186.8 210.8 188.8 185.8ZM231 142.2C239.4 136 238.8 115.6 229.4 130.9C221.2 136.9 211.4 172.2 225.9 148.3L228.5 145.1ZM166.1 126C173.6 122.5 193.9 96.5 175.5 112.8C169.7 117.4 143.9 145.3 163.9 127.9ZM264.7 116.1C274.9 110.5 273.1 103.5 263.1 108.8C259.7 116.4 248.1 130.1 262.6 117.8ZM255.6 114.2C262 89.4 242.2 127.7 255.6 114.2Z"/></svg>