<svg xmlns="http://www.w3.org/2000/svg" data-name="Layer 1" viewBox="0 0 743.7 416.5"><path fill="#e6e6e6" d="M515.79 132.16h-14.14a1.8 1.8 0 0 1-1.82-1.65l-2.83-29h23.43l-2.83 29a1.8 1.8 0 0 1-1.81 1.65"/><path fill="#ccc" d="M520.4 105.16h-23.36a1.83 1.83 0 0 1-1.82-1.83v-4.38a1.83 1.83 0 0 1 1.82-1.82h23.35a1.83 1.83 0 0 1 1.83 1.82v4.38a1.83 1.83 0 0 1-1.83 1.83"/><path fill="#6C63FF" d="M350.4 101h-56V84c17.7-12.31 33.38-11.24 54 1Z"/><polygon fill="#ffb8b8" points="281.433 402.957 269.173 402.956 267.34 355.668 281.435 355.669 281.433 402.957"/><path fill="#2f2e41" d="M284.56 414.84h-39.53v-.5a15.4 15.4 0 0 1 15.39-15.39h24.14Z"/><polygon fill="#ffb8b8" points="350.486 402.957 362.746 402.956 364.579 355.668 350.484 355.669 350.486 402.957"/><path fill="#2f2e41" d="M347.36 398.95h24.14a15.4 15.4 0 0 1 15.4 15.39v.5h-39.54Z"/><path fill="#2f2e41" d="M350.8 396.9a4.5 4.5 0 0 1-4.39-3.53l-30.38-132.54a1.46 1.46 0 0 0-1.47-1.17 1.46 1.46 0 0 0-1.46 1.19l-27.9 131.64a4.5 4.5 0 0 1-4.41 3.57h-13.3a4.5 4.5 0 0 1-4.49-4.76l9.9-166.86 3.99-1.18h.07l78.26.69 16.67 166.67a4.5 4.5 0 0 1-4.12 4.92l-16.6 1.34z"/><circle cx="318.49" cy="45.97" r="24.56" fill="#ffb8b8"/><path fill="#3f3d56" d="M303.44 242.73a42 42 0 0 1-12.72-1.79 28 28 0 0 1-17.04-14.37 4.5 4.5 0 0 1-.34-3.36c2.71-9.24 15.8-57.3 7.45-95.5a40.5 40.5 0 0 1 5.76-31.11 40 40 0 0 1 25.92-17.44 60 60 0 0 1 4.14-.66 39.8 39.8 0 0 1 32.26 10.61 40.8 40.8 0 0 1 12.82 32.36l-6.42 103a4.5 4.5 0 0 1-2.4 3.7c-7.4 3.88-29.6 14.56-49.43 14.56"/><path fill="#2f2e41" d="M346.24 27.9a30.16 30.16 0 0 0-33.06-18.6l7.75 6.27c-9.62.32-19.75-.37-26.62 6.38 2.19-.07 5.05 4.61 7.24 4.55-4.09.08-7.8 2.96-9.6 6.62a19 19 0 0 0-1.12 12c.81 4.01 6.97 13.4 8.63 17.14-.29-9.77 18.95-33.07 28.34-30.64a26 26 0 0 0-11.9 9.04 35 35 0 0 1 20.7-3.4 15 15 0 0 0 4.94.28 6.03 6.03 0 0 0 3.57-9.62Z"/><path fill="#6C63FF" d="M301.75 236.55a5 5 0 0 1-1.8-.38l-46.6-20.34a4.5 4.5 0 0 1-2.55-5.28l30.85-116.54a16.87 16.87 0 0 1 20.94-11.9l12.33 3.52-8.68 146.68a4.5 4.5 0 0 1-2.15 3.57 4.5 4.5 0 0 1-2.34.67"/><path fill="#6C63FF" d="m388 210.55-2.05-7.73-2.97-11.24-1.43-5.39-2.97-11.21-21.43-80.97a16.85 16.85 0 0 0-20.94-11.9l-12.33 3.52 6.11 103.17.63 10.77.4 6.79v.01l.64 10.71.9 15.23a4.53 4.53 0 0 0 4.49 4.24 5 5 0 0 0 1.8-.38l46.6-20.34a4.5 4.5 0 0 0 2.55-5.28"/><polygon fill="#ccc" points="381.55 186.19 330.621 199.57 329.99 188.8 378.581 174.98 381.55 186.19"/><polygon fill="#ccc" points="385.95 202.82 331.66 217.08 331.021 206.37 331.021 206.36 382.981 191.58 385.95 202.82"/><polygon fill="#ccc" points="308.181 191.12 307.55 201.69 257.601 186.81 260.53 175.75 308.181 191.12"/><polygon fill="#ccc" points="307.14 208.65 256.17 192.2 253.24 203.29 306.52 219.16 307.14 208.65"/><path fill="#ffb8b8" d="M257.06 219.7a10.74 10.74 0 0 0 7.04-14.89l23.96-75.22-16.99-3.56-21.97 73.75a10.8 10.8 0 0 0 7.96 19.92"/><path fill="#3f3d56" d="M288.73 92.6c4.88.5 7.62 5.99 6.41 12.82l-5.82 32.78c-.44 2.46-2.46 4.4-4.14 3.98l-19.7-4.92c-1.5-.38-2.06-2.53-1.2-4.69l11.82-29.65c2.56-6.44 7.9-10.8 12.63-10.31"/><path fill="#6C63FF" d="M318.4 0a32 32 0 0 1 31.98 31h6.02a2 2 0 0 1 2 2v8a2 2 0 0 1-2 2h-68a2 2 0 0 1-2-2v-9a32 32 0 0 1 32-32"/><path fill="#e6e6e6" d="M322.22 197.8H308.1a1.8 1.8 0 0 1-1.82-1.64l-2.83-29h23.43l-2.83 29a1.8 1.8 0 0 1-1.82 1.64"/><path fill="#ccc" d="M326.83 170.8h-23.35a1.83 1.83 0 0 1-1.82-1.82v-4.38a1.83 1.83 0 0 1 1.82-1.82h23.35a1.83 1.83 0 0 1 1.83 1.82v4.38a1.83 1.83 0 0 1-1.83 1.82"/><path fill="#ffb8b8" d="M315.46 182.25a11 11 0 0 1 1.63.32l37.64-32.28-2.2-11.85 17.44-5.66 5.94 20.6a8 8 0 0 1-3.41 8.97l-47.68 30.17a10.5 10.5 0 1 1-9.36-10.27"/><path fill="#3f3d56" d="M354.83 95.31c5.21-1.46 10.42 2.51 12.16 9.27l8.38 32.43c.63 2.43-.6 5.01-2.5 5.29l-22.3 3.2c-1.72.25-3.23-1.5-3.3-3.83l-.86-31.9c-.19-6.94 3.37-13.04 8.42-14.46"/><path fill="#ccc" d="M654.66 302.47a168 168 0 0 1-24.07-44.93 4.3 4.3 0 0 1 2.03-5.18l35.14-18.83a4.3 4.3 0 0 1 3.73-.15 4.3 4.3 0 0 1 2.46 2.88 102 102 0 0 0 22.45 41.9 4.3 4.3 0 0 1 1.04 3.64 4.3 4.3 0 0 1-2.2 3.02l-35.14 18.83a4.3 4.3 0 0 1-5.44-1.18"/><path fill="#fff" d="M657.06 300.67a1.3 1.3 0 0 0 1.62.33l35.15-18.83a1.3 1.3 0 0 0 .65-.9 1.3 1.3 0 0 0-.32-1.12 105 105 0 0 1-23.11-43.13 1.3 1.3 0 0 0-.76-.9 1.3 1.3 0 0 0-1.1.05L634.03 255a1.3 1.3 0 0 0-.62 1.54 165 165 0 0 0 23.64 44.13"/><path fill="#ccc" d="m670.07 260.4-19.14 8.45a3 3 0 0 1-3.96-1.53l-.47-1.07a3 3 0 0 1 1.53-3.96l19.15-8.45a3 3 0 0 1 3.95 1.53l.47 1.08a3 3 0 0 1-1.53 3.95"/><path fill="#ccc" d="m677.07 273.4-19.14 8.45a3 3 0 0 1-3.96-1.53l-.47-1.07a3 3 0 0 1 1.53-3.96l19.15-8.45a3 3 0 0 1 3.95 1.53l.47 1.08a3 3 0 0 1-1.53 3.95"/><path fill="#a0616a" d="M632.18 262.57a10.74 10.74 0 0 1-2.06-16.34l-8.08-114.56 23.26 2.25.64 112.19a10.8 10.8 0 0 1-13.76 16.46"/><path fill="#3f3d56" d="M627.3 170.16a4.5 4.5 0 0 1-1.85-3.4l-1.7-30.87a12.4 12.4 0 0 1 24.34-3.93l7.49 27.6a4.5 4.5 0 0 1-3.17 5.52l-21.29 5.78a4.5 4.5 0 0 1-3.81-.7"/><polygon fill="#a0616a" points="587.676 403.408 575.416 403.408 569.584 356.12 587.678 356.12 587.676 403.408"/><path fill="#2f2e41" d="M566.66 399.9h23.64v14.9h-38.53a14.9 14.9 0 0 1 14.89-14.9"/><polygon fill="#a0616a" points="633.676 403.408 621.416 403.408 615.584 356.12 633.678 356.12 633.676 403.408"/><path fill="#2f2e41" d="M612.66 399.9h23.64v14.9h-38.53a14.9 14.9 0 0 1 14.89-14.9"/><path fill="#2f2e41" d="m587.1 379.59-13.5-.65a4.5 4.5 0 0 1-4.29-4.46c-3.55-54.92-8.48-113.8-.94-136.56a4.5 4.5 0 0 1 5.15-4.48l54 7.83a4.5 4.5 0 0 1 3.85 4.42c6.89 26.94 7.2 75.79 6.94 126.54a4.5 4.5 0 0 1-4.5 4.53h-14.55a4.5 4.5 0 0 1-4.44-3.8l-8.98-57.07a3.5 3.5 0 0 0-6.93.13l-7.13 59.6a4.5 4.5 0 0 1-4.47 3.97z"/><path fill="#3f3d56" d="M596.6 245.7c-11.9-6.61-21.2-8.35-25.68-8.8a4.4 4.4 0 0 1-3.06-1.67 4.5 4.5 0 0 1-.93-3.4l12.94-96.05a33.2 33.2 0 0 1 19.36-25.96 32.3 32.3 0 0 1 31.4 2.46l1.3.9a33.2 33.2 0 0 1 12.64 34.58c-7.93 32.46-10.66 85.66-11.12 96a4.5 4.5 0 0 1-2.92 4 45 45 0 0 1-15.23 2.71 38 38 0 0 1-18.7-4.77"/><circle cx="607.42" cy="72.22" r="24.56" fill="#a0616a"/><path fill="#2f2e41" d="M624.8 91.65c-4.58 4.88-13.1 2.26-13.69-4.4a8 8 0 0 1 .01-1.56c.31-2.96 2.02-5.64 1.6-8.76a4.6 4.6 0 0 0-.83-2.14c-3.65-4.9-12.22 2.18-15.67-2.24-2.11-2.72.37-6.99-1.25-10.02-2.14-4-8.48-2.03-12.46-4.22-4.42-2.44-4.15-9.23-1.24-13.36 3.55-5.03 9.77-7.72 15.92-8.1s12.25 1.27 18 3.5c6.51 2.55 12.98 6.06 17 11.8 4.87 6.97 5.34 16.34 2.9 24.5-1.48 4.96-6.55 11.02-10.29 15"/><path fill="#6C63FF" d="M644.25 115.53c-.43-2.02-4.12-4.78-9.4-7.03a58.1 58.1 0 0 0-52.5 4.5 2.5 2.5 0 0 0-2.29 1.95L562.3 193.5l-2.31 10.23-1.53 6.77-2.3 10.2-1.24 5.45a2.5 2.5 0 0 0 2.22 3.05l76.7 6.62.21.01a2.5 2.5 0 0 0 2.48-2.34l.73-11.11.78-11.88.34-5.15.77-11.85 5.11-77.84v-.07Z"/><path fill="#a0616a" d="M518.42 120.47a11 11 0 0 1 .24 1.64l42.95 24.79 10.44-6.01 11.14 14.57-22.34 15.92-49.01-38.66a10.5 10.5 0 1 1 6.58-12.25"/><path fill="#3f3d56" d="M563.15 144.79a4.5 4.5 0 0 1 1.29-3.65l21.86-21.87a12.4 12.4 0 0 1 19.17 15.51l-15.57 24a4.5 4.5 0 0 1-6.22 1.32l-18.5-12a4.5 4.5 0 0 1-2.03-3.31"/><polygon fill="#ccc" points="639.15 193.5 638.38 205.35 559.99 203.73 562.3 193.5 639.15 193.5"/><polygon fill="#ccc" points="638.041 210.5 637.26 222.38 556.15 220.7 558.461 210.5 638.041 210.5"/><path fill="#6C63FF" d="M607.9 24.5a32 32 0 0 0-31.97 31h-6.03a2 2 0 0 0-2 2v8a2 2 0 0 0 2 2h68a2 2 0 0 0 2-2v-9a32 32 0 0 0-32-32"/><path fill="#e6e6e6" d="M108.11 343.06a39 39 0 0 1-37.72-6.65c-13.2-11.09-17.35-29.36-20.72-46.27L39.7 240.1l20.87 14.37c15.01 10.34 30.36 21 40.75 35.97s14.93 35.4 6.58 51.6"/><path fill="#f2f2f2" d="M106.33 403.63c2.11-15.38 4.28-30.97 2.8-46.52-1.31-13.81-5.53-27.3-14.1-38.36a64 64 0 0 0-16.38-14.84c-1.64-1.04-3.14 1.56-1.51 2.59a60.7 60.7 0 0 1 24 28.95c5.22 13.3 6.06 27.78 5.16 41.9-.55 8.54-1.7 17.02-2.86 25.49a1.55 1.55 0 0 0 1.05 1.84 1.5 1.5 0 0 0 1.84-1.05"/><path fill="#e6e6e6" d="M85.98 376.4a28.8 28.8 0 0 1-25.05 12.94c-12.68-.6-23.26-9.46-32.78-17.86L0 346.62l18.63-.89c13.4-.64 27.15-1.24 39.91 2.9s24.53 14.07 26.87 27.28"/><path fill="#f2f2f2" d="M112.3 412.48c-10.17-18-21.96-37.99-43.03-44.38a48 48 0 0 0-18.1-1.87c-1.93.17-1.45 3.13.47 2.97a44.6 44.6 0 0 1 28.89 7.64c8.14 5.54 14.48 13.25 19.85 21.42 3.29 5.01 6.23 10.23 9.18 15.44.94 1.67 3.7.47 2.74-1.22"/><path fill="#ccc" d="M742.7 416.5h-712a1 1 0 0 1 0-2h712a1 1 0 0 1 0 2"/></svg>