<svg xmlns="http://www.w3.org/2000/svg" fill="none" viewBox="0 0 32 32"><path fill="#F37366" d="M26.83 2H5.17a3.15 3.15 0 0 0-3.16 3.16v21.69a3.16 3.16 0 0 0 3.16 3.16h21.67A3.16 3.16 0 0 0 30 26.85V5.16A3.17 3.17 0 0 0 26.83 2"/><path fill="#9D5044" d="M30 19.4a.54.54 0 0 0-.52-.4c-.28 0-.48.2-.48.48s-.21.52-.49.52a.5.5 0 0 1-.5-.52v-1.97c0-.31-.25-.51-.53-.51s-.48-.23-.48-.51v-.98a.53.53 0 0 0-.52-.51h-2.2c-.7 0-1.28.58-1.28 1.29v1.2a.5.5 0 0 1-.49.51h-1c-.27 0-.5.23-.5.51v.99a.5.5 0 0 1-.51.5h-3.98a.5.5 0 0 0-.49.5c0 .28-.23.51-.51.51H2.02v5.84c0 1.74 1.4 3.16 3.15 3.16h21.67A3.16 3.16 0 0 0 30 26.85v-7.44"/><path fill="#B35F47" d="M30 19.4a.54.54 0 0 0-.52-.4c-.28 0-.48.2-.48.48s-.21.52-.5.52a.5.5 0 0 1-.49-.52v-1.97c0-.31-.25-.51-.53-.51h-.01c-.28 0-.47-.23-.47-.51v-.98a.53.53 0 0 0-.53-.51H25v2.97a1 1 0 0 0 .98 1.02c.56 0 1.02.46 1.02 1.01 0 .56-.46 1.01-1.02 1.01h-9.33c-.86 0-1.56.7-1.56 1.56 0 .76.62 1.43 1.38 1.43h6.52a2 2 0 0 1 2 2 2 2 0 0 1-2 2h-11.2a.3.3 0 0 0-.31.31v1.7h15.36A3.16 3.16 0 0 0 30 26.85v-7.44"/><path fill="#FF822D" d="M21.64 4.54a.98.98 0 0 1 1.77.01c.13.28.47.39.75.24l.17-.09c.66-.35 1.44.21 1.3.94l-.04.19c-.06.3.15.59.46.63l.2.03c.73.1 1.03 1 .48 1.51l-.14.13a.52.52 0 0 0 0 .77l.14.13a.88.88 0 0 1-.5 1.51l-.2.02a.52.52 0 0 0-.46.62l.03.19a.89.89 0 0 1-1.3.93l-.17-.09a.54.54 0 0 0-.75.24.98.98 0 0 1-1.77-.01.54.54 0 0 0-.75-.24l-.17.09c-.66.35-1.44-.21-1.3-.94l.04-.19a.53.53 0 0 0-.46-.63l-.19-.03a.87.87 0 0 1-.49-1.51l.14-.13a.52.52 0 0 0 0-.77l-.14-.13a.88.88 0 0 1 .5-1.51l.2-.02a.52.52 0 0 0 .45-.62l-.03-.19a.89.89 0 0 1 1.3-.93l.17.09c.3.15.63.04.76-.24"/><path fill="#F9C23C" d="M22.5 11.98a3.5 3.5 0 0 0 3.54-3.49A3.5 3.5 0 0 0 22.5 5a3.5 3.5 0 0 0-3.54 3.49 3.5 3.5 0 0 0 3.54 3.49"/><path fill="#00F397" d="M12.34 30.01v-7.66c1.01 0 2.87-.2 4.1-1.16 1.59-1.24 1.57-3 1.57-3.96v-1.97c0-.9-.72-1.58-1.8-1.58-1.07 0-1.75.54-1.75 1.57v2.17c0 1.24-1.17 1.34-1.5 1.34h-.62v-4.49a3.5 3.5 0 1 0-7 0v9.44h-.62c-1.03 0-1.51-.54-1.51-1.84V17.6c0-1.2-.88-1.64-1.2-1.66V26.4c1.09.66 2 .83 3.34.84v2.77z"/><path fill="#00D26A" d="M7.88 15.29a.38.38 0 1 0-.75 0v9.9H5.66c-1.17 0-2.74-.24-3.66-1.6v1.15a5.4 5.4 0 0 0 3.66 1.2h1.47V30h.75zm3.02 0a.38.38 0 0 0-.75 0V30h.75zm5.64.93a.38.38 0 0 0-.75 0l.01.61q.03.65-.02 1.28c-.06.61-.24 1.07-.64 1.33-.5.34-.87.5-1.31.6-.4.08-.87.1-1.57.1v.75c.7 0 1.24-.02 1.72-.12a4 4 0 0 0 1.58-.7c.67-.46.9-1.19.97-1.88.05-.47.03-1 .02-1.45z"/><path fill="#86D72F" d="M5.9 12.78c.14.14.22.1.36-.04q.3-.32 0-.65l-.3-.29a.37.37 0 1 0-.52.52zm6.37-.97c.14.15.14.38 0 .52l-.46.46a.37.37 0 1 1-.52-.52l.45-.46a.37.37 0 0 1 .53 0m2.78 2.08a.37.37 0 0 0-.5.54l.46.44a.37.37 0 1 0 .5-.53zM4.59 16.26c0-.2.17-.36.37-.36h.55a.37.37 0 1 1 0 .73h-.55a.37.37 0 0 1-.37-.37m.02 11.87c0-.2.17-.37.37-.37h.54a.37.37 0 1 1 0 .73h-.54a.37.37 0 0 1-.37-.36m7.53-1.76a.37.37 0 1 0 0 .73h.55a.37.37 0 0 0 0-.73zm4.08-5.92a.37.37 0 0 1 .53-.01l.47.44a.37.37 0 1 1-.51.54l-.47-.45a.37.37 0 0 1-.02-.52m-12.43-.9c.15.14.15.37 0 .52l-.46.45c-.14.15-.45.16-.45-.17 0-.24.02-.47.17-.61l.22-.2a.37.37 0 0 1 .52 0m4.09 2.93v-1.09L7 20.44a.37.37 0 0 0-.54.5zm2.27 1.5 1.2-1.1a.37.37 0 1 1 .5.54l-1.61 1.48-.1.06zm0-6.71V18h.9a.37.37 0 1 0 0-.73z"/></svg>