<svg xmlns="http://www.w3.org/2000/svg" fill="none" viewBox="0 0 32 32"><path fill="#321B41" d="M19.54 8.25c.12 0 .21.1.21.21v2.17h-7.5V8.46c0-.12.1-.21.21-.21zm0-2.25h-7.07A2.46 2.46 0 0 0 10 8.46v4.42h12V8.46C22 7.1 20.9 6 19.54 6"/><path fill="#F8312F" d="M28.44 29.99H3.56c-.86 0-1.56-.7-1.56-1.56V18.01l1-.46L2 17v-3.88C2 11.39 3.4 10 5.12 10h21.75c1.73 0 3.12 1.4 3.12 3.12v3.9l-.74.5.74.49v10.43c.01.85-.69 1.55-1.55 1.55"/><path fill="#CA0B4A" d="M30 17H2v1h28z"/><path fill="#D3D3D3" d="M7 18.03a2 2 0 1 0 3.99 0v-1.35a.6.6 0 0 0-.62-.62H7.62a.6.6 0 0 0-.62.62zm14 0a2 2 0 1 0 3.99 0v-1.35a.6.6 0 0 0-.62-.62h-2.75a.6.6 0 0 0-.62.62zm4.5 5.02h-19a.5.5 0 0 0-.5.5c0 .28.22.5.5.5h19a.5.5 0 0 0 .5-.5.5.5 0 0 0-.5-.5m-19 3h19c.28 0 .5.23.5.5a.5.5 0 0 1-.5.5h-19a.5.5 0 0 1-.5-.5c0-.28.22-.5.5-.5"/></svg>