<svg xmlns="http://www.w3.org/2000/svg" viewBox="-1.56 -1.55 158.85 75.94"><g fill-rule="evenodd"><path fill="#c44018" d="M113.7 36.38h-3.91c-.53.32-.2.25-.76.15h-.6l-.45.15h-.3l-.9.3h-.3l-1.82.6c-.71.72-.28.3-.6.3l-.45.16c-.72.71-.28.29-.6.3-.72.71-.29.29-.6.3-.32.3-.25.27-.6.48l-.3.15c-.31.13-.27.09-.46.12-.8.8-1.6 1.17-2.56 1.94-4.5 3.58-5 5.63-6.94 7.56-.06.26.09.09-.17.45-.12.16-.3.31-.43.45-.01.32.41-.11-.3.6l-.15.16c-.02.32.4-.11-.3.6l-1.36 2.87-.15.15-.15.45-.15.15v.3l-.15.15-.3.9-.16.16v.3l-.15.15v.3l-.15.15v.3l-.15.15v.3l-.15.15v.3l-.15.16v.3l-.15.15v.6l-.15.15v.3l-.15.15c.1.65-.12.92-.28 1.66-.14.7-.11 1.18-.48 1.81v-3.32l-.15-1.65v-.6l-.15-.76v-.3l-.15-.76v-.6l-.15-.45v-.9l-.15-.46v-.6l-.15-.45v-.3l-1.2-3.32c-.5-.57-.42-.47-.46-1.05-.72-.72-.29-.29-.3-.6-.35-.42-2.5-4.8-5-7.7l-2.23-2.57c-.9-.95-1.52-1.18-2.57-2.25-2.24-2.28-6.97-4.89-7.69-5.57-.26-.05.04.05-.45-.13-.36-.13-.15-.04-.45-.2-.43-.2-.48-.21-.9-.58-.33-.01.1.42-.6-.3-.59-.04-.5.03-1.06-.45-.58-.04-.49.03-1.06-.45l-.9-.3c-.58-.04-.49.03-1.06-.46l-.9-.3c-.55.1-.22.18-.76-.15l-1.35-.45h-.3l-.45-.15h-.3l-.46-.15h-.3c-.55.1-.22.17-.75-.15h-.3c-.55.1-.22.17-.76-.15h-.9l-.45-.15h-6.03l-.45.15h-.9l-.46.15h-.6l-.15.15h-.6l-.45.15h-.3l-.16.15h-.3l-.45.15h-.3l-.15.15h-.3l-.15.15-.3.01-.15.15-.16.14-.32.02-.43.14-.45.16-.15.15-.46.14c-.74.62-2.1 1.16-3.07 1.75l-.15.15c-.06.04-.33.2-.37.21-.47.2-.23.1-.48.15l-.15.15c-.65.65-.62.57-.6 1.2l.3.3v.3c2.99 2.87 9.54-4.23 18.69-2.4h.3c.5.1.69.14 1.2.3h.3l1.81.6h.3l.16.15h.3c.9.56 1.66.5 2.56 1.06h.3l.15.15h.3l.76.45h.3l.3.3h.3l.15.15h.3l.3.3h.3l.3.3.46.16.3.3h.3l.45.45h.3l.3.3.46.15.3.3c.31.02-.11-.4.6.3l.3.3c.32.02-.1-.4.6.3l.46.46c.28.06.07-.07.45.2.25.17.39.34.6.55l.3.3c.58.13 1.23.93 1.66 1.36l.46.45c.3.07.06-.06.45.21.36.25 2.71 2.46 2.86 3.1l1.75 1.82.08.15.07.15.06.15.3.3c.08.08.25.25.28.3.2.35.12.2.17.45l.3.3c.71.71.3.29.3.6l.3.3.16.46.3.3.15.45.3.3.15.45.3.3v.3l.3.3.16.46.3.3v.3l.3.3v.3l.3.3v.3l.3.3v.3l.45.76v.3l.15.15v.3l.15.16v.3l.15.15v.3l.16.15v.3c.35.58.24.63.6 1.2v.3l.15.16v.3c1.07 1.72 2.5 8.15 2.49 10.4 0 1.14-.14 2.24.07 3.32l.4.13c.53.32 0 .24.8 1.07l.16-.15h.6l.15-.15h.3l.45-.15.45-.45c-.37-.64-.27-.79-.13-1.51.12-.56.15-.87.24-1.36.18-1 .5-1.88.8-2.86v-.3c.5-.81.4-1.3.9-2.11v-.3l.15-.15V62l.3-.3v-.3l.16-.16v-.3l.3-.3v-.3l.15-.15v-.3l.3-.3v-.3l.3-.3v-.3l.3-.3v-.3l.3-.3.16-.46.15-.15.15-.45.3-.3.15-.46.3-.3c.01-.31-.4.11.3-.6l.3-.3c.01-.05.06-.17.03-.15-.02.01.03-.12.05-.15.16-.24.16-.24.37-.46l.16-.15c.06-.29-.07-.06.2-.45.17-.24.34-.39.55-.6l.15-.15c.15-.67 2.1-2.4 2.71-3.02l2.87-2.34q.06-.04.15-.07c.11-.11.32-.34.45-.42.36-.23.2-.12.45-.18.11-.11.33-.35.46-.43.35-.22.2-.12.45-.17.08-.09.24-.25.3-.29.35-.2.2-.11.45-.17.7-.7.29-.28.6-.3l.15-.15.46-.15c.71-.72.28-.29.6-.3.71-.72.28-.29.6-.3l.45-.15.15-.16.46-.15h.3l.15-.15h.3l.15-.15h.3l.45-.15h.3l.15-.15h.3l.16-.15h.3l.15-.15h.6l.15-.15h.3l.46-.15h.6l.75-.15h.3l.46-.15h.3l.15-.16h.3l.15-.15h.3l.15-.15h.3l.3-.3.46-.15.75-.75c.42-.73.42-1.38 0-2.11v-.3l-.45-.46z"/><path fill="#425a78" d="M95.73 42.51c-.42-.53-.13.03.05-.4.52-.74.34-1.3.44-2.11v-.3l-.4-1.21-.05-.15c-.66-.7-1.03-1.34-1.96-2.26s-1.56-1.3-2.26-1.96c-.05-.01-.1-.05-.15-.03-.06.02-.12-.03-.15-.05-.25-.16-.24-.16-.45-.38-.32 0 .11.42-.6-.3l-.46-.15c-.28.07.01.41-.4-.2l-.16-.14c-.24.24-.14.28-.3 0l-.16-.15c-.23.24-.12.26-.33.04l-.46-.15c-.2.2-.1.2-.27-.03l-.15-.15c-.23.23-.12.24-.33.03h-.3c-.2.2-.11.21-.27-.04-.65-.22-.43-.2-1.3-.03-.3.13 0 .11-.4.13-.5.02-.1.01-.44-.06l.54-.37.06-.54v-1.5c-.08-.32-.18-.23.14-.16l-.1-.8c-.36.14-.28.27-.2-.1-.07-.3-.18-.22.13-.18 1.37-1.1 4.3-1.65 5.6-1.28 3.04.86 3.59 3.73 4.66 4.34.6-.7.4-.96.24-1.67-.17-.82-.1-.82-.68-1.66-1.11-1.63-2.2-1.62-3.31-2.56l-.9-.3h-1.81c-.83.16-1.15.1-2.11.5a10 10 0 0 0-2.11 1.3c-1.23-1.96-1.16-3.2-4.07-5.54-4.55-3.65-10.82-2.02-14.18-4.42-1.16-.82-.74-1.75-1.65-2.7-1.27 1.51-1.66 3.16-1.96 4.68-1.97-1.98-2.46-2.51-4.52-3.51-3.64-1.78-5.84-1.63-9.05-4.35-2.29-1.93-1.9-3.55-2.7-4.5-3.24 3.23-2.08 5.9-2.27 7.08-.87-1.4-1.58-2.8-3.31-4.19-5.74-4.58-15.83-2.52-21.86-3.15-2-.2-5.34-1.07-5.21-3.81.06-1.4.9-1.3.1-2.26-1.69 1.68-2.05 2.3-2.05 4.07 0 1.38.42 2.75 1.74 4.06-1.32.27-.4-.27-2.86.55-2.83.95-7.78 4.94-6.33 7.44C1.2 18.95 1.16 20.81.67 21.6l.02.25a9 9 0 0 0 .56 2.2l.55 1.37q.2.53.45 1.04c.37-.15-.09-.15.53.29.33.23.48.5.7.79l.32.28c.24-.24.15-.27.26.04.7.36.97.43 1.55.56.35-.12.27-.24.17.1-.45 1.44-.08 1.45-.16 2.56.53.62.32 1.43 2.73 3.21 2.12 1.56 1.7 2.21 3.32 2.54 1.03.36 1.47.36 2.63-.09.11-.28.02-.26.27-.1l.86-.27c.1-.42-.5.15.18-.42.35-.3.16-.12.43-.18l1.8 1.52c.33-.09-.08-.4.53.21.6-.05 1.1-.02 1.74-.06.87-.06 1.03-.05 1.98-.44l1.17-.34.34-.26c.17-.23.08-.23.28-.02l.35-.25c.14-.29.05-.26.28-.03l.35-.25c.02-.32-.03-.14.27-.03l1.51-.9c-.16-.44-.24-.3.2-.1l1.13-.99c.5-.47.78-.47 1.32-1.06.54-.61.34-.65 1.07-1.37l.3-.3c-.03-.36-.42.1.17-.43.36-.3.13-.13.43-.17l.15-.16c-.57-.32-.05-.17-.59-.25-2.02 1.75-7.57 5.3-10.26 5.54-2.32.2-1.62-.63-3.45-1.76-2.25-1.39-3.5 2.58-6.83.22-1.7-1.21-3.05-3.51-3.09-4.95-.02-1 .6-.84.52-1.82-.66-1.39-3.34-.84-4.75-3.46-1.46-2.7 1.89-4.22 2.67-4.9 1.35-1.16.1-3.2 2.09-5.37 1.65-1.79 3.89-2.67 5.45-2.56 4.14.3 3.25.32 4.92 2.28 1.61 1.89 2.38-.65 5.33.55 2.45 1 2.82 3.1 2.84 4.88.03 2.06-1.99 4.7-3.1 5.08l-.47.51-.3.3.3.27.42-.15.3.01.16-.15h.3l.31-.29h.3l.32-.28.28-.03 2.1-2.1.16.15L26 23.4l.62.59c1.66 1.6 6.03 2.6 7.83 3.01.63-.1.65.03 1.19.02.57 0 .56-.13 1.2 0 .52-.52.15-.23.47-.15l.15-.15.44-.16c.52-.51.15-.23.43-.13l.32-.02c-.08-.33-.17-.23.16-.14l.15-.15c-.65-.42-1.99-.41-2.87-.52-1.04-.12-1.8-.42-2.86-.71-2.09-.58-3.96-1.21-5.72-3.3-.1-.35-.2-.24.15-.15l.16-.47c-.11-.33-.19-.22.15-.12l.16-.42.15-.46.1-.77c-.31.05-.2.13-.12-.17-.08-.33-.18-.23.14-.16q.25-1.06-.12-2.28c-.26-.19-.22-.08.03-.33l-.15-.15c-.27-.13-.26-.04-.05-.25-.52-.52-.24-.13-.1-.5l-.16-.15c-.55-.37-.27-.12-.2-.4-.77-.78-.29-.23-.27-.63l-2.09-2.14c-.35.14-.06.5-.43-.16l-.15-.15c-.39.15-.05.44-.5-.12l-.15-.15c-.22.23-.12.25-.3.01l-.16-.15-.32.02-.4-.2c-.25.25-.13.27-.35.05-.2.2-.11.2-.28-.03l-1.18-.02-.29.11-.98.25-.29.3-1.65-1.66q-.07-.04-.16-.03c-.04.02-.1-.04-.12-.06l-.13-.18c-.03.03-.05-.05 0 0q.02-.02.02-.25l-.25-.26c3.49 1.06 13.99-.72 16.91.14a19 19 0 0 1 8.47 5.43c2.97 3.19 4.55 6.77 5.26 7.24.36.24.05-.36.77.6.15.62-.13.1.42.79l.62.54.36.28.38.53h.6l.46.15h.3l.15-.15c-.16-.83-1.17-1.25-2.33-3.32-1.47-2.6-3.31-7.41-2.84-10.05 5.95 6.97 11.18 2.1 16.07 10.5.09.87.25 1.77.68 2.73.8-.42.19-.2.78.74-.39.04-.06.08-.5-.19.63.8.12.01.1.6l1.4 2.49-.31.52.51.5.45-.45c.57.91 1.97 1.84 3.02 2.44l.15.08.3.13.15.06c-2.89-5.1-4.98-8.31-4.04-13.01 2.73 2 2.9 2 5.7 2.72 7.46 1.91 10.91 1.05 12.99 11.07.05.31.13.2-.18.12l-.5.1c-.36.56-.13.27-.4.2l-.26.04c.03.34.09.19-.24.07l-.36.24c-.15.64-.12.24-.4.2l-.15.16c-.18.23-.07.24-.4.47-.4.26-.16.11-.46.17l-1.03 1.09c-.16.55.15-.03-.34.58-.15.2-.4.42-.58.6l-.22-.22c.2.72.43.2.04 1.29-.21.57-.54.97-1 1.37.7.3.48-.14 1.03.72l.53.23c.34-1.24-.25-1.84 1-3.21 6.09-6.64 13.92-.14 14.61 3.44.67 3.41-2.74 5.15-3.47 5.88 1.47.3 1.11-.37 2.36-.57.96-.95 1.74-1.92 1.95-2.95Z"/><path fill="#5e7fa8" d="m31.42 30.35 1.05-.85.16-.06.15-.15.61-.52c-.5-.02-.33-.01-.92.14l-5.42 1.35c-1.9.34-4.63-.02-6.34-.71-2.72-1.11-2.98-4.43-2.46-6 .92-2.71 4.5-3.02 5.6-.85l-.72.87.04.26c1.1-.39 3.13-3.02 3.1-5.09-.02-1.77-.4-3.88-2.84-4.88-2.95-1.2-3.72 1.34-5.33-.55-1.67-1.96-.78-1.98-4.92-2.27-1.56-.11-3.8.76-5.46 2.56-1.98 2.15-.74 4.2-2.08 5.36-.78.68-4.13 2.2-2.67 4.9 1.4 2.62 4.08 2.07 4.75 3.46.08.99-.55.83-.52 1.83.03 1.43 1.39 3.73 3.1 4.94 3.3 2.36 4.56-1.6 6.82-.21 1.83 1.13 1.13 1.95 3.44 1.75 2.7-.23 8.24-3.8 10.27-5.54.54.08.02-.06.6.26Z"/><path fill="#fedfb1" d="M84.31 70.59c-.2-1.08-.07-2.18-.07-3.32.01-2.24-1.42-8.68-2.49-10.4v-.3l-.15-.15v-.3c-.36-.58-.24-.63-.6-1.2v-.3l-.15-.16v-.3L80.7 54v-.3l-.15-.15v-.3l-.15-.16v-.3l-.46-.75v-.3l-.3-.3v-.3l-.3-.3v-.3l-.3-.3v-.3l-.3-.3-.15-.46-.3-.3v-.3l-.3-.3-.16-.46-.3-.3-.15-.45-.3-.3-.15-.45-.3-.3c-.72-.72-.3-.28-.3-.6l-.3-.3c-.1-.1-.25-.24-.29-.3-.2-.36-.11-.2-.16-.46l-.3-.3c-.7-.7-1.2-1.02-1.6-1.81l-.06-.15-4.07-4.07c-.6-.13-1.23-.92-1.66-1.36l-.3-.3c-.3-.07-.06.07-.45-.2-.25-.18-.39-.34-.6-.55l-.45-.46c-.33 0 .11.43-.6-.3l-.3-.3c-.33 0 .1.42-.61-.3l-.3-.3-.45-.15-.3-.3h-.3l-.46-.45h-.3l-.3-.3-.45-.16-.3-.3h-.3l-.3-.3h-.3l-.16-.15h-.3l-.3-.3h-.3l-.75-.45h-.3l-.16-.15h-.3c-.9-.57-1.66-.5-2.56-1.06h-.3l-.15-.15h-.3l-1.81-.6h-.3a9 9 0 0 0-1.2-.3h-.3c-9.15-1.83-15.7 5.27-18.7 2.4v-.3l-.3-.3c-.34-.23-.3-.21-.6-.3l-1.07 1.06-.09.3c-.2.83-.23.65.1 1.2-.33-.04.07.27-.6-.3-1.09 1.09-.48.62-.83 1.73l.04.2c.4.62.26.65.63 1.24v.3l.15.16c.73.71.3.27.3.6l1.36 1.35.45.15.3.3h.3c.8.5 1.32.47 2.12.3h.3c.31-.08.26-.06.6-.3h.3l1.36-1.05.15-.15c.01-.33-.42.12.3-.6l1.66-1.36h.3c.68-.65.57-.37 1.21-.9h.3l.75-.46h.3l.16-.15h.3l.15-.15h.3l1.36-.45h.3l.45-.15h.3l.45-.15h.6l.76-.15h2.7l.46.15h.6l.45.15h.6l.46.15h.6l.15.15h.6l.16.15h.3l.45.15h.3l.15.15h.3l.16.15h.3l1.35.45.15.15h.3l.16.16.9.3.15.15.46.15c.32 0-.12-.42.6.3l.45.15.15.15.45.15.15.15.46.15.15.15c.33.02-.12-.42.6.3.05.01.16-.02.15.03s.12.04.15.05c.25.16.24.16.45.38.65.14 1.54.84 2.72 1.72 2.7 2.02 2.93 2.15 5.58 4.76l2.03 2.4.09.16.13.3.76 1.06.84 1.05.06.15c.09.08.25.24.28.3.2.36.12.2.17.46l.15.15c.1.1.24.22.29.3.2.35.12.2.17.45.08.08.25.24.28.3.2.35.12.2.17.45.08.09.25.24.28.3.2.35.12.2.17.45.88 1.04 1.28 2.65 2.12 3.62l.23.54-.09.21.15.46.15.15v.3l.16.15.15.46.15.15v.3l.15.15v.3l.15.15.15.45c.4.63.85 2.27.75 2.86-.33-.54-.28-.63-.56-1.2-.2-.4-.5-.79-.65-1.2l-1.69-2.23c-.83-.3-1.9-1.68-2.67-2.45l-.87-.63-.4-.34-2.97-1.62-.62-.4c-2.37-.63-5.85-3.08-10.81-2.12-1.25.24-2.43.99-3.6 1.52l.26.3c.35-.02.42 0 .92-.16 2.43-.72 3.65-1.32 6.93-.7 2.3.45 5.75 1.63 8.02 3.38l.09.13.78.5c.6.58 4.86 3.57 5.13 4.81.7.45.54.04.78.79l.4.44.24.37.15.45.21.4c.2.47.25.76.78 1.32l.45-.45c.22 1.08.65 3.06.45 4.07v.6l.15.46v2.1l-.03 1.18-.07.07.02.25.05.05.34.26h.3l.15-.15h.3l.15-.15h.3c.68-.85.07-.35.3-1.5Zm-53.8-36.93 2.11 2.11a2.9 2.9 0 0 1-2.1-2.1m88.92 11.45.15.15-.9.9-.16-.15zm.15-.45c.38-.39.26.21.09.09 0 0-.51.33-.1-.1m3-8.1c-1.55-.08-2.6-.45-4.23-.34-1.3.1-.88.55-.77.78.4.55.45.43-.11.12h-.3c-1.32-.1-.79-.6-1.66.15l1.05 1.06v.3a1.9 1.9 0 0 1 0 2.1c-.01.45.15.3-.3.3l-.45.46-.45.15-.3.3h-.3l-.16.15h-.3l-.15.15h-.3l-.15.16h-.3l-.45.15h-.3l-.76.15h-.6l-.45.15h-.3l-.16.15h-.6l-.15.15h-.3l-.15.15h-.3l-.15.15h-.3l-.46.15h-.3l-.15.15h-.3l-.15.15h-.3l-.45.15-.15.16-.46.15c-.71.71-.28.29-.6.3-.71.72-.28.29-.6.3l-.45.15-.16.15c-.7.72-.28.3-.6.3-.08.09-.24.25-.3.29-.35.2-.2.12-.45.17-.11.1-.33.34-.45.42-.36.23-.2.12-.45.18-.12.11-.33.35-.46.43-.36.22-.2.11-.45.17-1.12 1.13-1.75 1.44-2.86 2.56l-3.02 3.02c-.06.3.08.06-.2.45-.18.25-.33.39-.55.6l-.15.15c-.01.05.02.1-.03.16s-.03.12-.05.15c-.16.25-.15.23-.37.45l-.3.3c-.02.32.42-.12-.3.6l-.3.3-.16.45-.3.3-.15.46-.15.15-.15.45-.3.3v.3l-.3.3v.3l-.3.3v.3l-.3.3v.3l-.16.16v.3l-.3.3v.3l-.15.15v.3l-.3.3v.3l-.15.16v.3c-.5.8-.4 1.3-.9 2.1v.3c-.31.99-.63 1.87-.8 2.87-.1.5-.13.8-.24 1.36-.15.72-.24.86.13 1.5l.3.3h.6l.15-.14h.9l.46-.15h1.2l.15-.15.46-.76v-.3l.15-.15v-.3l.15-.45v-.3l.15-.15v-.3l.3-.91v-.3l.16-.15v-.3l.15-.15v-.3l.15-.16v-.3l.45-1.35.15-.15.15-.46c.01-.22 0-.15.08-.45s.07-.26.22-.6c.23-.53.2-.58.6-1.06l.46.45.72-.48c.6-.3.35-.1.93-.57l.27-.04c.72-.32 1.6-.55 2.3-.68.47-.09.64-.09 1.05-.15.75-.12.5-.23 1.26-.09l.25.06h.3l.23-.07.7.14.77.23.35.06.36.24.61.3c1.03.61 1.08.84 1.2 1.5l.15.16.06.24.15.15-.08.38c.14.62.32 1.75-.71 1.7-1.11-.04-1.52-1.15-1.84-1.93-.5-.23-.12-.5-.62.2-.37.52 0 1.62.64 2.16 5.91 5.07 7.06-10.4-6.04-6.54-1.4.41-2.8 1.44-2.8 1.44-.16-.4-.44 0 .08-.51.01-.32-.41.1.3-.6.02-.33-.41.1.3-.61.02-.32-.4.11.3-.6.02-.05.06-.17.03-.15-.02.01.04-.12.06-.15.15-.25.15-.24.37-.46 0-.05.06-.16.03-.15s.06-.54.87-1.35l.47-.9c.17-.27.4-.64.6-.91.44-.64 1-1.19 1.47-1.82.72-.97.95-.9 1.68-1.53.73-.61.84-1 1.81-1.17.72-.72.28-.3.6-.3.72-.72.29-.3.6-.3.72-.72.29-.3.61-.3.72-.72.28-.3.6-.31l.46-.15c.57-.48.47-.41 1.05-.45l.45-.15h.3l.9-.3h.3l.46-.16h.3l.45-.15h.3l.46-.15h3.01l.45.15h.9l.16.15h.3l.45.15.45-.45c.1.32.09.25.3.6l.15.16h.3l.16.15.9.3.15.15h.3l.15.15.46.15c.78-.66 1.3-1 2.26-1.96.04-.58-.03-.48.45-1.05l.15-.45v-.3l.15-.46v-.3c.02-.36.03-.37.15-.75v-1.2l-.14-.45v-.6l-1.97-1.96-.45-.16-.15-.15-.45-.15-.15-.15-.46.46-1.05-1.06c.4.03.12 0 .6.1.28.06.26.09.55.15l10.9 1.23c1.78.16 9.66.98 10.72.47-.89-.6-3.56-.8-4.69-.95-3.49-.46-11-1.37-14.02-2.01"/><path fill="#5e7fa8" d="m69.25 53.1-3.63-.7c-.74-.12-.66-.05-1.05-.65 1.16.08 3.88.68 4.68 1.36"/><path fill="#5e7fa8" d="m80.85 59.59-.46.46-1.69-2.23c-.42-.52-.85-.94-1.31-1.41l-1.36-1.04-.87-.64c-.15-.42.16-.06-.35-.56l-.43-.42c.02.04.08.16-.16.1l.53.54-2.96-1.62c.78-.1 1.48.44 2.13 1.09l-1.96-2.26c.02.86-.48 1.1-.12.98.03 0-.04.13-.05.2l-.62-.41c-2.37-.62-5.86-3.08-10.82-2.12-1.25.25-2.42 1-3.6 1.52-.54.41-.55.29-1.07.73.33-.02.4-.02.75-.14.36-.13.2-.05.58-.29.36-.01.43 0 .93-.16 2.43-.71 3.65-1.32 6.93-.69 2.3.44 5.74 1.63 8.02 3.37.02.19.02.18.06.26l.01-.04c.03-.01 0-.05.02-.08l.78.5c.08.4.02.78.47 1.1 1.3.92.7-.25 3.72 2.77-.58-.13-1.78-.81-2.52-1.08a8 8 0 0 0-2.72-.6 7 7 0 0 0-4.93 1.38c-2.86.99-13.37 7.44-11.4-1.42-1.3-.96-5.04.23-6.13-2.3-.4-.93-.02-2.13.75-3.04 1.07-1.28 1.93-1.24 2.28-1.5 1.8-1.27-1.84-.33-.51-4.21.6-1.78 1.88-2.04 3.37-2.21 7.98-.95 18.43 6.65 23.3 12.66l.36.25.15.15v.3l.15.15.15.45.15.15v.3l.15.16v.3l.15.15z"/><path fill="#feb548" d="M128.18 57.78c.38-.39.26.21.09.09 0 0-.51.33-.1-.1m-1.06-16.13c-.32-.01.11.42-.6-.3-.32-.01.11.42-.6-.3l-.46-.15-.15-.15h-.3l-.15-.15h-.3l-.15-.16h-.9l-.3.3v.6l.14.46V43l.46.46h.3l.15.15h.3l.3.3.45.15.3.3c.05.02.17-.02.15.03-.01.05.13.03.16.05.24.16.23.16.45.38l2.05 2.26.06.15c.71.71.29.28.3.6l.15.15.3.9v1.81l-.15.16v.3l-.15.15c-.17.75-.93.77-.9 1.8-.93-.92-1.57-1.29-2.27-1.95h-.3L125 51h-1.2l-.46.15-1.05.44-2.27 2.26-.15.46-.15.15v.3l-.15.15v.3l-.15.45v.3l-.15.76v.6c.16.81.02.9.3 1.82l.15.45.15.15v.3l.16.15.15.45.15.15c.73.73.29.27.3.6l1.66 1.67c.33 0-.12-.44.6.3l.15.15.45.15.15.15h.3l.46.15h.3l.45.15h3.02l.45-.15h.3l.15-.15h.3l.46-.15h.3l.3-.3h.3l.15-.15h.3l.3-.3 1.8-1q.06-.04.16-.06l1.96-1.96c.01-.05.09-.17.06-.15s.05-.12.07-.15l.77-1.51.15-.15v-.6l.15-.15v-.3c.04-.46-.05.2.04-.46.05-.31.07-.35.12-.6l-.15-1.06c-.1-.48-.19-1.03-.32-1.5-.08-.3-.14-.42-.24-.76l-.2-.9-.15-.15-.15-.46-.15-.15-.15-.45-.15-.15-.15-.45c-.72-.71-.3-.28-.3-.6-1-1-2.77-3.84-5.43-6-.6-.48-1.49-.94-2.11-1.54Z"/><path fill="#5e7fa8" d="m17.46 9.64.4.51c.3.07.04-.06.44.22.23.16.26.2.46.38.64.56.37.5 1.04.77l.98-.25c.12-.28.02-.25.29-.11l1.18.02.27.03.36-.06.4.2.32-.01.15.15h.3l.16.14.5.11.14.15.44.17.15.15c.76.31 1.52 1 1.78 1.84l.15.15c.64.75.26.3.28.62l.2.4.15.16.15.75.16.15-.04.33c.27.82.28 1.57.13 2.28l-.15.15.13.18-.1.76-.15.47-.17.42-.14.12-.17.47-.15.14c1.77 2.1 3.64 2.72 5.72 3.3 1.07.3 1.82.6 2.87.72.87.1 2.21.1 2.86.52l.3-.01.16-.15h.3l.15-.15h.3l.45-.16h.3l.15-.15h.3l.46-.15h.6l.15-.15h.6l.46-.15h.9l.45-.15h4.52l.52-.52-.36-.28c-1.05.99-3.34.24-4.98-.26-3.54-1.09-13-5.95-14.33-9.02.77-.42 1.38-.05 2.29.62 2.58 1.88 8.33 5.36 11.14 6.4.77.28 3.67 1.32 4.31 1.35l.54-.43c-.72-.95-.41-.36-.78-.6-.7-.46-2.28-4.04-5.25-7.23a19 19 0 0 0-8.47-5.44c-2.93-.85-13.43.92-16.92-.13z"/><path fill="#425a78" d="M95.47 32c-.01.34.39-.12-.28.63l-.16.15-.15.45-.15.15v.3l-.15.15v.3l-.16.15v.3l-.15.75c.17.92.35.94.92 1.82.68-1.03.16-2.96 4.16-6.4 3-2.58 5.91-2.18 9.53-2.24 1.08-.02 2 .08 3.17.04 1.98-.06 4.35-.74 6.46-2.5 0 .39.1-.08-.08.68-.04.18-.15.46-.2.61q-.24.65-.61 1.35a20 20 0 0 1-1.61 2.54c-2.18 2.76-4.53 3.4-4.1 4.84l.75.12.74-.72.9-.6c.12-.1.33-.34.46-.42.36-.23.2-.12.45-.18l3.17-3.16c-.52.51-.95.78-1.02 1.38 3.79-1.85 4.41-2.3 8.25-1.9 6.14.62 10.86 5.15 16.58 6.8 1.63.47 6.8.66 8.12-.1-1.26 1.73-8.5 3.89-10.53 4.4-2.14.56-3.48.62-5.43.83-.88.1-1.65.04-2.7.06-.92.02-1.72-.38-2.58.12 1.42 1.43 1.18 1.22 3.78 1.55 1.32.16 2.48.08 3.77-.07 1.3-.15 2.42-.26 3.76-.53 1.17-.24 2.89-.4 3.77-1.24l-.1.4 2.63-.88c-.04-.31-.11-.19.22-.16l.2-.03c.01-.28-.05-.15.22-.08 2.12-1.32 5.4-2.31 7.28-6.33.5-1.08.89-1.97.25-2.72-2.48 2.48-5.79 3.87-9.04 3.45a14 14 0 0 1-4.52-1.16 50 50 0 0 1-4.68-2.37c-5.03-2.86-13.3-6.65-18.23-1.73.06-.28-.05 0 .17-.45.66-1.37 3.48-6.04 1.34-8.29-1 1.05-.93 4.58-8.6 4.6s-8.48-2-15.82 5.35Z"/><path fill="#5e7fa8" d="M117.36 32.49c-.44.36-.7.66-1.1 1.04l-.74.61-.15.07-.15.06-.91.9c-.34-.08-.26.18 0-.3l-.9.6c-.01.45-.1.4.3.9.55-.08.94.09 1.66.08.97-.02.9-.22 1.8.68h.3l.12-.12c-.11-.23-.52-.69.77-.78 1.62-.11 2.68.26 4.23.34 3.01.64 10.53 1.55 14.02 2.01 1.13.15 3.8.34 4.7.95-1.07.51-8.95-.31-10.72-.47l-10.9-1.24.5.51.45.15.15.15.45.16c.3.06.06-.07.46.21.26.18.37.31.6.53.66.64.5.67 1.2.91h.91l.15.16h.3l.15.15h.3l.16.15.45.15c.32.01-.12-.41.6.3.32.01-.11-.41.6.3.2.04.14 0 .45.13.42.18.1.02.46.24.43.26.66.44 1.04.67.86-.5 1.66-.1 2.58-.1 1.05-.03 1.82.03 2.7-.07 1.95-.22 3.3-.28 5.44-.83 2.02-.52 9.26-2.68 10.52-4.41-1.31.77-6.49.57-8.12.1-5.72-1.65-10.44-6.17-16.57-6.8-3.84-.39-4.47.06-8.26 1.91M95.98 58.93l-.2.2c-.02.32.4-.1-.3.6l-.1.52s1.41-1.03 2.8-1.44c13.11-3.85 11.96 11.61 6.05 6.54-.64-.54-1.01-1.64-.65-2.15.5-.7.12-.44.63-.21l.12-.12-.12-.11c-.47-.29-.24-.2-.75 0-.45.2-.53.37-.9.74l-.9.9c.02.04 2.46 7.81 8.43 6.17 1.95-.54 1.96.69 3.48-.87.48-.5.93-1.07 1.18-1.67.4-.95.07-1.09.25-1.82.32-1.27 2.36-1.4 2.31-3.16a6 6 0 0 0-1.74-3.52c-1.26-1.18-2.92-1.26-3.26-2.18-.15-.88-.23.05.2-.93.31-.74.32-.16.34-.9-.08-1.42-2.23-2.89-3.51-3.08-4.08-.62-9.85 2.55-12.84 6.52zM69.55 31.7c.96.96 2.85 2.2 3.92 3.06 1.2.97 2.77 2.73 3.91 3.88 0-.43-1.02-4.23-1.3-4.73-.27-.13-.25-.04-.04-.26l-.4-.8c-.3-.12-.27-.04-.03-.27l-.81-1.6c-.34.05-.2.12-.09-.22l-.36-.54c-.35.06-.21.13-.08-.23l-.36-.54c-.36.08-.22.25-.17-.18-.34-1.3-2.95-3.58-3.18-4.38l.3-.13.06.15 2.4 2.12c.32.07-.16-.45.61.32.95.94.36.36.38.8l.8 1.01c.62.12-.3-.63.23.05.33.42.11 0-.06.09l.44.75c.51.02.3-.09.28.27l.32.64c.5.1-.2-.64.23.06.27.43.16 0-.1.05.1.44 1.96 4.83 2.22 5.24.2-.14.72-.58 1.15-.96l1.02-1.09.87-.64.15-.15.4-.2.35-.25.24-.06.26-.05.4-.2.5-.1.18-.12c-2.07-10.02-5.53-9.16-12.99-11.07-2.8-.72-2.96-.72-5.7-2.72-.94 4.7 1.16 7.92 4.04 13.01Z"/><path fill="#feb548" d="M43.64 46.32c-3.83-8.58-13.06-.9-7.1 2.2 1.38.71 2.84.41 3.01-1.3.2-1.9-1.86-1.66-2.6-2.4.87-.88 2.21-.75 3.2.3l.11.2c.79 1.3.37 2.4-.27 3.8-1.23 1.3-2.4 1.37-3.74.75l-.22-.24-.25-.18-.63-.55q-.3-.23-.54-.52-.08-.1-.13-.22l-.07-.18-.1-.19-.1-.18-.13-.17-.1-.19a4 4 0 0 0-.36-.57l-.17-.24q0-.72.27-1.43l-.34-.35-1.06-.15h-.3l-.15-.15h-.3l-.3-.3c-.06-.01-.1-.08-.16-.06s-.87-.36-1.05-1.15l-.3-.3-.15-.45-.15-.15v-.3l-.15-.15v-.3l-.15-.16v-.3L29 40v-1.2l.16-.76v-.3c.11-.6-.03-.34.3-.9 0-.33-.42.12.3-.6l-.15-.15v-.3c-.38-.6-.24-.63-.64-1.25-1.65 4.93-3.13 9.27-.65 14.2 2.97 5.9 8.4 8.45 13.17 4.63 2.96-2.36 3.4-4.24 2.15-7.04Z"/><path fill="#da6a48" d="M78.74 39.7c.04.2 0 .06.1.44l.14.46 3.1 4.37.88 2.56c.72.72.3.28.3.6.49.57.42.48.46 1.06l.75.75.45-.45v-.9l.15-.46v-.6c-.08-.08-.25-.24-.28-.3-.2-.35-.12-.2-.17-.45l-.3-.3-.15-.46-.15-.15v-.3l-.15-.15v-.3c.11-.6-.03-.34.3-.9l.15-.46.3-.3c.04-.32-.15-.07.2-.44.76-.78.1-.25.55-.31l.3-.3.46-.15.15-.15h2.1l.46.15h.3l.3.3h.3l.3.3c.06.01.18-.02.16.03-.02.04.11.03.13.05.27.32.1.08.17.37l.3.3v.3c.43 1.42 0 1.27.15 2.26l-.15.46-.45.75c-.07.3.06.07-.2.45-.17.24-.35.4-.56.6l-.14.76v.6l-.16.46v.6l-.15.75c.47.48.5.1 1.06-.45 0-.32-.42.11.3-.6l.15-.15c.01-.33-.42.11.3-.6.06-.27-.08-.1.18-.46.11-.16.28-.31.42-.45l.24-.6c.18-.33.13-.23.43-.6.68-.89.88-.5.39-1.37.52-.43.63-.35 1.16-.86-1.24.2-.89.87-2.35.56.72-.72 4.14-2.46 3.47-5.88-.7-3.58-8.53-10.07-14.6-3.44-1.27 1.38-.67 1.98-1.02 3.22z"/><path fill="#5e7fa8" d="m98.01 37.07-.59.5c.08-.3-.48.08.19-.4.5-.38-.03-.1.4-.1m1.53-2.2.15.15-1.5 1.5-.16-.14zm1.06-.45-.6.6c.1-.46-.51.17.17-.43.35-.3.13-.13.43-.17m3.11.65c-.04.52.29.07-.13.52-.33.35-.15.12-.42.18zm.65-.2c.24-.34.73-.35.2 0-.02 0-.62.63-.2 0m.9-.6c.4-.39.27.21.1.09 0 0-.51.33-.1-.1m.76-.46c.39-.38.27.22.1.1 0 0-.52.33-.1-.1m.6-.3c.39-.38.27.22.1.1 0 0-.52.32-.1-.1M95.2 37.15c.39.46.16.11.4.58.32.68.13.33.18.6.04.05.56.47.57.48l.2.6.51-1.15c-.16-.2-.3-.18.12-.03l.84-1.16a17.5 17.5 0 0 1 6.96-4.59q1.78-.7 3.46-1.11c.83-.2 2.67-.38 3.32-.27.54-.1.8-.24 1.35-.15-.48.3-.58.3-1.05.45-1.16.69-1.92.46-3.2 1.1-1.76.18-3.4 1.29-5.14 2.57l-1.02.84c-.03.35.2.09-.2.45-.44.41-.12.27-.6.25l-2.63 2.5-.17.43c-1.16 1.06-1.56 1.66-2.57 2.87a7 7 0 0 1-.75-.3c-.17.43-.46-.13-.05.4l.5.5 4.07-3.3.3-.15c.46-.22.18-.1.46-.17.3-.3.24-.27.6-.48l.3-.15c.3-.13.26-.09.45-.12.72-.72.29-.29.6-.3.72-.72.29-.3.61-.3l.45-.15c.72-.72.28-.3.6-.3l1.81-.61h.3l.9-.3h.31l.45-.15h.6c.54-.33.2-.25.76-.15h.6c.72-.42.73-.15 1.51-.31-.41-1.45 1.93-2.08 4.1-4.84.57-.7 1.2-1.74 1.62-2.54a12 12 0 0 0 .81-1.97c.18-.75.08-.29.08-.68a10.7 10.7 0 0 1-6.46 2.5c-1.18.05-2.09-.05-3.17-.03-3.61.06-6.54-.34-9.53 2.24-4 3.44-3.48 5.36-4.16 6.4M51.91 24.92l.15.15h.3c.56-.1.23-.17.76.15h.3c.55-.1.22-.17.76.15h.3l.45.15h.3l.45.16h.3l1.36.45c.55-.1.22-.18.75.15l.9.3c.59.04.5-.03 1.06.45l.9.3c.59.04.5-.03 1.06.46.58.04.49-.04 1.06.45.32 0-.12-.42.6.3.39.03.06-.05.6.13.23.07.4.17.7.28-2.1-2-3.47-3.63-5.97-4.93a66 66 0 0 1-5.84-3.37c-.76-.05.38.63-.31-.04-.32-.31-.12-.06-.19-.36-.32-.31-.82-.72-1.1-1.02-.56-.61-.44-.33-.56-.95.63-.23-.24-.55 1.67.75 5.04 3.42 6.89 2.08 11.2 6.9.03-.58.53.2-.09-.6l-.28-.54a9 9 0 0 1-.68-2.73c-4.9-8.4-10.13-3.54-16.08-10.5-.47 2.63 1.37 7.45 2.84 10.05 1.17 2.06 2.18 2.49 2.33 3.31"/><path fill="#435b79" d="m80.67 62.48-.42.42c-.32-.32-.75-.8-1.2-.91l-.15-.15a3 3 0 0 0-.46-.37c-.03-.02-.16 0-.15-.05s-.1-.02-.14-.03l-.31-.3-.45-.15-.32-.28-.28-.02-.35-.26c-.15-.26-.06-.24-.27-.03l-.15-.14-.5-.23h-.17c-.02-.29.03-.15-.28-.14l-.43-.07c-.18-.27-.07-.23-.32.02l-.16-.15c-.12-.27-.05-.27-.2-.02l-.92-.06c.05-.3.14-.2-.17-.13h-.3c-.35-.08-.24-.17-.14.17l-.92.1c-.6.04-1.28.18-1.9.36l-.17-.13-5.32 2.81-.28.02-.15.16c-.38 0 .14-.48-.62.28-.27.06.08-.09-.45.16l-.3.16c-.45.26-.34.19-.76.59-.32 0 .12-.42-.6.3l-.9.3-.32-.02-.15.16h-.6l-.16.14-.28.02h-.3l-.3-.01-.44-.15h-.3l-.16-.15-.46-.14c-.73-.73-.28-.29-.6-.3l-1.04-1.07-.15-.45-.15-.16-.02-.28.01-.31-.15-.16v-2.1l.14-.44v-.97l-.6.06h-.9l-.3-.02-.14-.14-.32.01h-.3l-.29-.01-.15-.15h-.3l-.15-.15h-.3l-.16-.15c-.73-.7-.28-.28-.61-.3-.52-.51-.62-.73-1.17-.94l-.27-.49c.34.16.06.1.4.07l-.57-.34-.04-.24c.06-.3.4 0-.2-.42l-.15-.16c.24-.23.26-.13.03-.32l-.15-.16v-.91l.09-.22.02-.18.12-.28.15-.15c.54-.87.22-.29.21-.7l.16-.14c.8-.62 1.05-.73 1.97-1.64l.16-.16c.24-.04-.12.35.6-.18.29-.21.19.12.18-.3 0-.43-.4-.63-.82-.99l-.16-.15c.13-.35.41.03-.1-.49l-.16-.45.01-.3-.15-.16v-.28l.16-.45v-.3l.15-.15c.49-.56.22-.14.13-.48l2.58-2.53.45-.15.15-.15h.3l.15-.15h.3l.16-.15.28-.02.32.02.45-.15.29-.02h.3l.31.02h1.18l.32-.02h.3l.28.02.76.15h.3l.45.15h.3c.66.2 1.19.41 1.84.3.91.55 2.31.78 3.3 1.23q.83.35 1.66.84c.37.22.54.4.9.6l.75.32c1.1 1.1 1.89 1.36 2.87 2.26 2.45 2.25 2.95 2.43 5.38 5.43l1.57 2.1c.8.71.14.21.59.3l.23.55c-.54-.23-.32-.21-.08.22l-.21.2c-4.87-6-15.31-13.6-23.3-12.66-1.5.18-2.76.43-3.37 2.21-1.34 3.88 2.3 2.94.5 4.22-.34.25-1.2.22-2.27 1.5-.77.9-1.15 2.1-.75 3.03 1.09 2.53 4.84 1.34 6.13 2.3-1.97 8.86 8.54 2.41 11.4 1.42a7 7 0 0 1 4.93-1.37c1.13.07 1.6.18 2.72.6.74.26 1.94.94 2.52 1.07l.94.94c.7.45.54.04.78.79l-.48-.18q.22.23.45.42c.31.23.24.14.44.2l.23.37c-.04.27-.57.13.15.45zm31.22-11.02-.15-.15h-.3l-.15-.15h-.3l-.15-.16h-.3l-.45-.15h-.31c-1.87-.33-6.68.4-8.58 1.95l-.3.01-.63.57c-.92.67-1.55 1.3-2.54 2.29l-.9 1.5c-.01.05.02.1-.03.15-.05.07-.03.13-.05.16-.16.24-.16.23-.37.45-.02.32.41-.11-.3.6l-.1.4.53.03c2.98-3.97 8.76-7.14 12.83-6.52 1.28.2 3.43 1.66 3.51 3.07-.02.75-.02.18-.34.91-.43.98-.35.05-.2.93.34.92 2 1 3.26 2.18a6 6 0 0 1 1.74 3.52c.05 1.77-1.99 1.9-2.3 3.16-.2.73.14.87-.26 1.82a6 6 0 0 1-1.18 1.67c-1.52 1.56-1.53.33-3.48.87-5.97 1.65-8.4-6.12-8.43-6.16-1.3 1.52-.23 4.25 1.21 5.72l.6.6c2.4 2.36 5.55 1.7 7.23 1.51 1.34-.15 1.52 1 4.04-1.07.19-.6.94-1.2 1.54-1.78l.29-.31v-.3l.46-1.05-.01-.32.15-1.05c-.07-.31-.17-.22.15-.16l1.35-1.35v-.3c.3-.48.3-.59.46-1.05v-2.09l-.16-.45v-.3l-.15-.15-.15-.45-.15-.16-.15-.45-.15-.15c-.06-.06-.38-.4-.42-.46-.2-.31-.13-.25-.19-.44l-.9-.9-.6-.3-.15-.16h-.3l-.15-.15h-.3l-.45-.16-.6.05.16-.5.15-.16-.02-1.8-.15-.14v-.3l-.15-.15-.3-.6-1.5-1.51z"/><path fill="#c44018" d="M44.99 46.02c-.14 0-.5.42 0-.3l-.04-.27-.98-1.43-.07-.24-1.44-1.57c-.73-.6-1.22-.72-1.9-1.12l-.4-.2-.26.05c-.62.14-1.13-.04-2 .1-.35.05-.56.08-.9.15-.8.17-.91.5-.79.17.02-.03-.1.03-.16.03-.44.25-.43.18-.8.63l-.15.15-.1.2c-.71.69-.9.86-1 1.67.57 0-.1.09-.28.97q-.21.6-.26 1.2c.42.55.67 1.22 1.04 1.8l.48.76c.02.03.11.2.04.06l.04.06.12.13.1.09.2.15q.26.22.48.46c1.45.78 2.71.8 4.03-.6.64-1.4 1.06-2.5.27-3.8-.31-.06-.33.03-.1-.2-1-1.04-2.34-1.18-3.2-.3.72.74 2.79.5 2.6 2.4-.19 1.71-1.64 2.01-3.02 1.3-5.96-3.09 3.26-10.78 7.1-2.2 1.24 2.8.81 4.68-2.15 7.04-4.77 3.82-10.2 1.28-13.17-4.62-2.48-4.94-1-9.28.65-14.2l-.03-.2c-.42-.48 0-.45-.53-.07-1.46 1.88-1.3 3.48-2.2 5.04-.01.42-.07.5-.12.98-.07.69.13.4-.23 1.04.15 1.08-.13 2.4.02 3.64.1.87.27 2.37.67 3.28 1 1.43 1.81 2.99 2.77 4.46q.4.64.97 1.14.09 0 .1-.02c-.4-.47.07-.1 0 0l.24.27.17.11.69.4c.1-.02.1-.07.16.11q.42.28.7.65c.24-.1.19-.2.16.1 1.07.64 1.87.89 2.97 1.12.54.1.91.19 1.5.13.9-.08.62-.32 1.41.11l.37-.15c.67-.41.34-.15.93-.4.34-.13.4-.18.76-.31.53-.2.94-.24 1.53-.49l.23-.1q.1-.09.18-.13h.01l.04-.04.01-.02.17-.22q.2-.28.44-.51.21-.18.44-.33l.05-.1.17-.2q.2-.4.48-.76l.02-.03c-.1-.19-.16-.16.1-.12l.12-.14.68-1.17c.08-.92.38-1.9.43-2.87.03-.66-.18-2-.56-2.72"/><path fill="#5e7fa8" d="m63.82 38.64-.45-.15h-.3l-.15-.15h-.3l-.16-.15h-.3c-.34-.24-.28-.22-.6-.3h-.3l-.15-.16h-.3a19 19 0 0 0-9.04-.6h-.3c-.83.26-1.92.53-2.72 1.2h-.3l-1.2 1.21v.3c-.33.32-.4.39-.65.76l-.25.45c-.23.5-.1.2-.16.45.62.26.05.08 1.05-.15l.46-.45h.3l.15-.15h.3l.3-.3h.3l.15-.16h.3l.46-.15h.3l.15-.15h.6l.45-.15h.9l.76-.15h1.2l.76.15h.9l.46.15h.6l.15.15h.6l.15.15h.3l2.27.76.15.15.9.3.15.15.45.15c.05.01.17 0 .15.04s.12.03.15.04l.46.15c.54.22.36.16.9.46 1.5.83 3.93 1.88 5.28 3.23.55.12 1.51.93 1.96 1.26 3.57 2.66 3.6 3.4 5.87 5.67l.46-.45-.29-.3c-.2-.35-.12-.2-.17-.45-.08-.09-.25-.25-.28-.3-.2-.36-.12-.2-.17-.46-.08-.08-.25-.24-.28-.3-.2-.34-.12-.2-.17-.45l-.16-.15-.27-.3c-.2-.35-.12-.2-.17-.45l-.7-.76-.08-.15-.13-.3-.55-.6-.08-.15-.07-.16-.05-.15c-2.54-2.53-3.45-4.31-7.39-6.66-.87-.52-1.89-.9-2.56-1.47"/><path fill="#da6a48" d="M26.6 24c-.04 0-.08-.08-.15-.05l-1.06-.23-.3.3-.28.02-.33.28h-.3l-.3.3h-.3l-.16.15-.31-.01-.42.15-.32.31c-.35-.61-.28-.01.02-.58l.3-.3c0-.28-.08-.12.04-.47.15-.43.03-.1.24-.45-.35-.88-1.44-1-2.25-.46l-.7.5-.34.41c.93.37.45 6.89 10.07 4.77l3.64.14.24.16.15-.15c.68-1.51-.5-.2.8-1.3l-.13-.47c-1.8-.41-6.18-1.42-7.84-3.02Zm58.44 4.81-.12.18.2.1.1.8-.15.16v1.5c.22.22.2.1-.04.35l-.02.2.3.29c.87-.16.66-.2 1.3.04l.27.03h.3l.33-.03.16.15.27.03.45.15.34-.03.15.15.3-.01.16.15.4.2.46.15c.32 0-.12-.42.6.3.05 0 .17-.02.15.02-.01.05.12.04.15.06.25.16.24.15.45.37 1.55.28 1.6 1.7 2.72 1.2l.16-.74c-.21-.21-.22-.1 0-.3l.15-.15c-.21-.21-.22-.11 0-.3l.15-.15c-.2-.22-.22-.12 0-.3l.16-.15c-.1-.32-.39.02.15-.45l.15-.15c0-.39-.48.14.29-.62l-.17-.13c-1.07-.61-1.62-3.48-4.66-4.34-1.3-.37-4.23.18-5.6 1.27Z"/><path fill="#feb548" d="M87.48 44.52h-.6l-1.2 1.2-.16.45-.15.15v.3l-.15.16c.1.55.18.22-.15.75v.6l-.15.45v4.23l.15.45v.6l.15.45v.9l.15.46v.6l.15.76v.3l.16.75v.6l.15 1.66c.62.28-.1.56.75-.15l.15-.15v-.3l.15-.15v-.6l.15-.16v-.3l.16-.15v-.3l.15-.15v-.3l.15-.15v-.3l.15-.15v-.3l.15-.16v-.3l.15-.15.3-.9.15-.15v-.3l.15-.15.15-.46.15-.15c-.08-.56.12-1.81.3-2.41l.16-.75v-.6l.15-.46v-.6l.15-.75v-.91l-.15-.45v-.3l-.16-.15-.15-.46c-.08-.08-.25-.24-.28-.3-.2-.35-.12-.2-.17-.45l-.6-.6c-.32-.01.11.41-.6-.3Z"/><path fill="#e5ded8" d="m125.62 44.37-.3-.3-.46-.16-.3-.3h-.3l-.15-.15h-.3l-.15-.15-.46.45v.3l-.15.45v.3l-.15.46c-.04.58.03.48-.45 1.05-.04.2.02.15-.12.47-.39.87-.69.64-1.54 1.5l1.3 1.35c.26.4.14.15.2.45l1.06 1.05.46-.15h1.2l.45.16h.3c.2.03.15-.02.46.12.7.3.94.67 1.5 1.23l1.36-1.35v-.3l.15-.16v-1.8l-.3-.9-.15-.16c-.72-.72-.3-.28-.3-.6-.87-.87-1-1.3-1.96-2.26l-.15-.15c-.05-.01-.1-.05-.15-.03-.06.02-.13-.03-.16-.05-.24-.16-.23-.16-.45-.38Z"/><path fill="#fedfb1" d="M20.01 23.47c.27-.35-.08-.1.27-.32.37-.24.15-.13.44-.19.8-.54 1.9-.42 2.26.46l.15.15.71-.87c-1.1-2.17-4.67-1.86-5.59.86-.52 1.56-.26 4.88 2.46 5.99 1.7.7 4.44 1.05 6.34.71l5.42-1.35c.58-.15.41-.16.92-.14l-3.64-.13c-9.61 2.12-9.14-4.4-10.07-4.77z"/><path fill="#e4ded8" d="M35.49 38.64c-.35.23-.29.21-.6.3h-.3c-.8.16-1.32.2-2.12-.3h-.3l-.3-.3-.45-.15-1.36-1.36c-.58-.4-.02-.4-.6 0-.33.57-.18.3-.3.9v.3l-.15.76v1.2l.15.76v.3l.15.15v.3l.15.15v.3l.15.15.15.46 1.81 1.8h.3l.15.16h.3l1.06.15.62-.63c.1-.8.3-.98 1-1.67l.1-.2.16-.15c0-.47-.04-.04.07-.5l.14-.48c.1-.3.22-.57.32-.9l.3-1.2-.3-.3z"/><path fill="#fedfb1" d="m98.01 37.07-.84 1.16-.12.03-.51 1.14-.32.3v.3c-.1.81.08 1.37-.44 2.12.02 0 .6.25.75.29 1-1.21 1.4-1.81 2.56-2.87-.07-.3-.39.04.17-.43l2.63-2.5.8-.7 1.02-.84c1.75-1.28 3.38-2.39 5.13-2.58 1.29-.63 2.05-.4 3.21-1.09l-.3-.3a12 12 0 0 0-3.31.27q-1.7.4-3.47 1.11a17.5 17.5 0 0 0-6.95 4.6ZM48.1 23.21c-.66-.03-3.55-1.07-4.33-1.35-2.8-1.04-8.55-4.52-11.14-6.4-.9-.67-1.52-1.04-2.29-.63 1.34 3.08 10.8 7.94 14.33 9.03 1.65.5 3.94 1.25 4.99.25l-.61-.54zm4.56-2.96.5.4A66 66 0 0 0 59 24.03c2.5 1.3 3.86 2.94 5.97 4.93l.3-.53-1.4-2.5c-4.31-4.8-6.16-3.47-11.2-6.9-1.9-1.29-1.04-.97-1.67-.74.12.62 0 .34.56.95.28.3.78.7 1.1 1.02Z"/><path fill="#e5ded8" d="m89.44 42.56-.3-.3h-.3l-.45-.16h-2.11l-.15.15-.46.16-1.35 1.35-.15.45c-.33.57-.18.31-.3.9v.31l.15.15v.3l.15.15.15.46.3.3c.59.4.02.4.6 0l.15-.15v-.3l.16-.16.15-.45c.18-.82.51-1.08 1.2-1.2h.6c.32 0-.1-.42.6.3.36-.04-.08-.42.43.17.31.36.14.12.18.43.08.08.25.24.28.3.2.35.12.2.17.45l.15.46.15.15v.3l.16.45c.61.28-.1.56.75-.15l.45-.76.15-.45c-.15-1 .29-.84-.15-2.26v-.3l-1.05-1.05z"/><path fill="#fedfb1" d="m70.92 24.91-.36-.02c.22.8 2.84 3.09 3.18 4.38l.17.18.37.54.07.23.36.54.09.21.81 1.6.03.27.4.8.04.27c.28.5 1.3 4.3 1.3 4.73l.34.33c.46-.4.78-.8.99-1.37.4-1.1.17-.57-.04-1.29-.26-.4-2.13-4.8-2.22-5.24l-.13-.1-.32-.65-.28-.27-.44-.76-.17-.13-.8-1.02-1-1.11z"/><path fill="#425a78" d="M88.55 25.07c.84-.23 1.3-2.62 4.06-1.82 2.77.8 1.69 2.88 1.28 3.86l.83.83c3.26-3.27-.54-7.7-4.37-5.79-1.26.63-2.55 1.69-1.8 2.92"/><path fill="#da6a48" d="M88.55 25.07c0 .35-.46-.14.29.6h1.8l.91.31c.27.02.03-.08.6.12l.61.3c.4.22.83.47 1.13.71.4-.98 1.5-3.05-1.29-3.85-2.76-.8-3.2 1.58-4.06 1.8Z"/><path d="M155.46 31.4c-.58.2-2.3 2.42-4.07 3.26-.82.39-1.43.64-2.26.8-6.65 1.21-11.91-4.03-17.94-6.12-4.1-1.42-6.5-1.96-10.7-.53l-.45.14-.15.04c1.09-1.74 2.03-6.82 0-8.13-1.4 1.65-.95 6.2-11.15 5.08-5.08-.57-8.69.58-12.66 4.56-.18-.9-.1-1.56-.9-2.41 3.59-3.6-.82-8.56-5.14-6.31-1.25.66-2.44 1.88-1.95 3.45-1.2.23-2.12.48-3.32 1.5-.36-.57-.3-.7-.64-1.35-4.59-8.87-14.65-5.04-17.9-8.73-.99-1.12-.35-1.75-1.05-2.88-1.57.97-2.43 3.36-2.72 4.83-1.73-1.73-2.59-2.49-4.37-3.26a53 53 0 0 0-4.52-1.71c-1.75-.59-5.4-2.94-6.13-5.13-.4-1.17.39-1.34-.35-2.26-2.64.93-3 3.85-3.47 6.17-2.02-3.25-4.25-4.18-7.83-5.21l-4.23-.73c-1.36-.11-2.95 0-4.37 0-3.3 0-10.59 1-12.78-2.18-1.44-2.1 1.3-3.12 1.63-4.08-1.78-1.04-4.96 2.01-4.42 5.57.14.9.53 1.86 1.26 2.72a12.4 12.4 0 0 0-5.73 2.44c-1.98 1.61-3.65 3.4-3.16 5.85C2.59 17.65.24 19.4 0 21.9a6.8 6.8 0 0 0 1.6 4.36c1.2 1.35 3.4 2.17 3.88 2.57-.39.67-.1 2.86-.03 3.07q.15.38.35.74l.15.13c.43.37.85.68 1.34 1.18.8.8 2.12 2.9 4.52 3.32 1.32.1 2.9.12 4.22-1.2.42.68.32.95 1.81 1.5.94.35 3 .46 4.22-.3 0 0 .65.25.9 0l4.5-2.41c-1.28 2.75-2.48 8.22-2.33 9.88.14 2.29 2.9 8.03 5.68 9.92 1.18.8 4.55 2.36 5.87 2.43.94.07 1.88.26 2.74-.14 1.04-.54 2.68-1.32 3.59-2.05a24 24 0 0 0 2.58-3.65c.15-1.29.93-3.52-.32-5.54-.34-1.99-2.53-4.21-4.52-4.82-1.76-.3-.41-.84-3.92-.1l-.6.1c-.4-.14-.15-.49 0-.9.1-1.5.77-1.43 1.53-2.58 1.88-2.86 7.8-4.34 10.83-4.13 1.66.11 5.36.66 6.93 1.17 1.47.48 5.88 2.12 7.09 3.27.35.05-.17-.46.6.3-.33-.04.07.27-.6-.3-.86.14-.3-.05-2.12-.5a22 22 0 0 0-6.78-.72c-1.97.23-5.12.63-6.51 2.57-.4.55-.67 1.09-1 1.6a.9.9 0 0 0 .07 1.04v.02c.13.15.34.19.5.09a6 6 0 0 1 1.45-.62c3.56-1.76 10.13-1.1 13.33.9-1.29.2-7.86-2.64-11.32 3.3-.7 1.23-.36 2.92.62 4.08-.6.5-.52.32-1.2.93-.49.44-1.04.68-1.35 1.25-.5.9-.97 1.9-.76 2.94.97 1.56.21 1.12 1.95 2.86 1.53 1.53 3.25 1.08 4.68 1.36-.9 4.5 1.47 7.44 6.03 6.28a16 16 0 0 0 4.83-2.68l-.2-.49-3.43 1.72c-2.77 1.56-6.57 1.05-6.45-2.57.04-1.34.38-2.6-.03-3.01-1.62-.94-3.95 1-6.05-2.71-.62-1.1-.74-2.08.17-3.17a6 6 0 0 1 2.29-1.84c.16-.08-.02.08.37-.19 1.32-.94-2.2-2.02-.45-4.75 2.92-4.54 9.19-2.87 13.32-1.51 4.71 1.55 12.55 8.5 14.66 12.81.26.53.27.67.48 1.2l.38 1.21c-1.82-1.82-1.8-2.44-4.82-4.86-4.18-3.35-4.48-4.65-10.55-6.5-1.43-.43-3.95-.8-5.28-.54.78.65.99.29 2.87.63 2.3.41 7.06 2.13 8.74 3.74-.05 0-.1-.05-.15-.02-.06.03-.12-.02-.15-.02-.4-.08-.12-.01-.45-.1l-.9-.32c-1-.34-4.13-1.24-4.98-.75 1.04.6 4.62.74 8.74 3.25 2.4 1.46 4.4 3.4 6.2 5.64l1.14 1.66.12.3.04.16.04.15c.71.71 0 .32 0 0-.75-.75-1.8-2.15-2.35-2.88-1.59-2.1-6.54-4.94-8.66-5.9a19 19 0 0 0-8.74-1.7c-.88.05-2.35.48-3.02.38 1.63-1.38 4.41-.62 5.43-1.2-.98-.58-2.95-.21-4.07.02-1.58.32-2.56.88-4.07 2.38.6.35.43.32 1.06.16.4-.1.64-.28 1.2-.44 1.59-.45 5.48-1.07 6.79-.32-.58.12-.79.04-1.36.1-.98.1-3.75.63-4.07 1.4.7.12.89-.1 1.66-.35 1.45-.46 3.95-.62 5.42-.45 1.43.16 5.94 1.53 7.24 2.77l-.9-.2c-.4-.12-.5-.18-.91-.29a15 15 0 0 0-4.55-.3c-.1 0-.4.09-.4.09-.76.3-.42.43.26.39 3.18-.23 8.08 1.03 10.42 3.3 1.41 1.39 2 2.63 3.16 3.79l-.15.15c-3.06-3.05-8.38-4.51-11-2.78q.34.24.65.5a7.3 7.3 0 0 1 3.72-.22c1.66.24 2.86.7 4.52 1.81a8 8 0 0 1 3.32 4c.36.9.82 4.8.95 6.54.03.36.38.6.72.52 1.68-.44 3.52-.84 4.5-1.04a26 26 0 0 1 3.59-.45c.55-.03 1-.45 1.08-1 .31-2.2 1.34-7.51 4.98-9.2 2.4-1.12 8-1.78 9.35 2.07-1.14 1.82-.92 1.38-1.96.15.2-.59.02-.3.6-.9-1.42-.82-3.48.98-3.94 2.26a5.3 5.3 0 0 0 .52 4.52c.9 1.57 1.45 1.6 2.48 2.55l.45.2c.67.34 1.17.54 1.85.57a17 17 0 0 0 1.8.23c1.63.09 2.58-.34 3.57-.38a4.5 4.5 0 0 0 2.48-.62c1.36-.92 2.57-2.05 2.99-3.75.64-3.03.77-1.36 1.72-3.17 1.15-2.18.51-4.74-1-6.64-1.31-1.66-1.98-1.54-3.27-1.8.3-1.56.3-2.65-1.2-4.23-2.73-2.88-7.66-1.9-10.86-.56l-2.26 1.02a17.4 17.4 0 0 1 8.29-4.88c4.2-1.03 7.04-1.03 11.15.85.53.24 3.37 1.7 2.25 2.58-.73.56-1.16.56-1.99 1.75-3 4.37-.56 11.14 5.62 11.67 4.84-.12 10.6-2.75 11.42-7.9.6-3.82-3.96-10.47-5.7-12.21.72-.1 1.82.24 2.72.24 1.67 0 6.83-.95 8.06-1q.2-.08.38-.18.51-.26 1.06-.42l.61-.19a4.6 4.6 0 0 1 1.97-.75q1.62-.71 3.3-1.23c1.56-1.22 3.75-2.53 4.74-4.15.93-1.51 1.92-4.05 1.13-5.43ZM71.45 51.85s-.6-.25-.1-.25c.33 0 .34.81.1.24m35.63-25.05c2.81.11 9.17.96 11.68-2.17.52-.64.75-1.36 1.13-1.97 1.63 5.3-4.9 12.14-7.39 13.08l-3.46.25c-1.14.11-2.33.4-3.47.78-1.79.6-5.26 2.16-6.93 3.83l-.16-.15c2.8-2.8 5-4.62 7.85-6.21l5.87-2.49c.79-.25 1.23-.25 1.96-.95-.6-.51-.23-.43-2.26-.2-1.66.19-5.68.9-6.78 2 .94.15 2.94-.97 4.37-.75-1.1.69-2.23.94-3.47 1.62-2.45 1.34-7.09 4.62-8.22 7.28-.34.81-.52 1.34-1.43 1.2 1.03-1.76-.98-2.05 2.4-5.43 3.16-3.13 3.83-2.57 5.6-4.06l-.31-.3c-.63.53-2.78 1.28-4.07 2.12-1.83 1.18-2.54 2.78-3.62 4.06l-1.36-1.97c-.6-.83-.45-1.1-.16-1.96 1.77-5.25 6.97-7.82 12.23-7.61m-12.51-3.84c1.32 1.33 1.5 3.02.15 4.37-3.38-2.85-4.92-1.77-6.03-2.4-.06-2.48 4.01-3.83 5.88-1.97m.5 8.9c-.3.65-.58.91-.82 1.65-.28.87-.13 1.05-.29 1.81a12 12 0 0 0-4.21-2.61c-2.34-.86-2.61-.5-4.38-.85.21-1.05.2-3.05-.45-4.07 4.41-4.4 11.75.5 10.15 4.07m.56 7.38c.84 2.52-1.62 7.36-4.53 6.78 1.84-3.18-3.63-6.01-6.18-3.46-1.61 1.61-.9 1.34-1.66 2.56-1.32-.83-1.05-.28-2.04-1.8-.46-.72-1.3-1.8-1.74-2.57-1.69-2.98-.36-4.16 1.67-6.18 3.91-3.91 12.77-.51 14.48 4.67m-7.09 5.43c-.59-.6-1.93-.79-2.41-.3-.8.8-.94 1.23-1.2 2.1-1.9-2.24 1.73-5.42 4.83-3.4 1.22.8 1.05 2.79.29 4-.68-1.09-.15-1.04-1.51-2.4m.52 6.14q-.15.71-.24 1.42a15 15 0 0 1-1.1 3.87l-.28.74q-.26.66-.46 1.36a9 9 0 0 1-.7 1.85l-.14.17c-.09-.1-.18-.37-.2-.65a56 56 0 0 0-.27-2.44c-.53-4.16-1.52-11.9 1.78-12.37h.02q.4.06.8.46.28.3.56.73c.86 1.49.55 3.12.23 4.86m-4.59-1.17c-.8-1.3-1.34-3.3-2.11-4.22.18.01.22-.04.61.09.62.19 1.04.9 1.4 1.57s.36 1.23.1 2.56m5.47-.76c.27-1.34.61-.69 1.16-2.26.41.09.3.08.76.07l.75-.06c-1.28 1.5-2.33 3.73-2.86 4.37a10 10 0 0 1 .2-2.11M64.73 15.43c.56.97.84 3.2 4.97 3.82 3.72.55 8.54.64 11.76 3.86 2.43 2.44 3.63 6.5 3.16 8.9-2.76.85-3.33 1.21-5.73 3.61a13 13 0 0 0-1.54-4.07 28 28 0 0 0-6.74-7.59c-.95-.77-1.17-1.4-2.11-.85a37 37 0 0 1 5.42 7.24c1.81 3.1 2.5 5.93 3.32 7.23.57-.71.22-.23.27-.6.11-.81-1.64-4.5-2.04-5.27a25 25 0 0 0-4.11-6.03l.15-.15c2.07 2.07 4.06 4.17 5.37 6.63.6 1.12 1.7 3.67 1.32 4.97l-.36 1.66c-1.8-1.8-2.23-2.96-5.58-5.41-1.03-.77-1.87-1.45-2.86-2.1-2.82-1.87-3.47-2-4.72-5.45-1.66-4.57-2.37-6.52.05-10.4M44.6 11.5c.2-1.3.63-2.82 1.88-4.07.5 2.56.91 2.72 2.86 4.67 1.7 1.7 4.01 2.43 6.18 3.16 1.94.65 4.41 1.7 6.33 3.62.42.42.4 1.59.7 2.72l.34 1.36.32 1.5c-.82-.7-6.63-3.8-7.84-3.62 1.23 1.18 7.13 3.07 8.46 5l1.34 3c-2.41-2.05-9.86-4.03-13.87-4.29-.77-.05-1.37-.32-1.99-1.13-2.16-2.8-5.23-8.4-4.7-11.92ZM12.7 6.99c-.85-1.93-.71-3.62.94-5.28 0 .05.02.1-.02.16-.12.17-.5 2.33.32 3.16 3.15 3.15 8.93 2.33 13.72 2.34 2.39 0 4.55-.08 6.93.46 4.12.94 7.09 2.2 9.09 6.1.8 1.53.87 2.85 2.67 6.02.73 1.29 1.6 2.36 1.5 3.02-.7-.6-7.14-3.23-8.89-4.11-1.49-.75-2.99-1.6-4.52-2.28a26 26 0 0 1-4.52-3.1l-.3.3c.5.87-.02.62.87 1.8 2.15 2.85 4.75 4.48 7.87 5.85 1.2.53 2 .98 3.16 1.45l2.26.76c.73.12.2.35.9-.22l-3.6-1.46a66 66 0 0 1-3.63-1.67c-4.27-2.14-4.12-2.5-7.08-5.46l.3-.3c2.34 2.33 11 6.28 14.02 7.5.97.4 4.13 1.7 4.82 2.3-2.25.44-4.36-.67-11.15 1.6-2.02.67-2.44 1.13-5.58.42-1.72-.4-4.73-1.48-6.18-2.94 5.28-5.28.51-14.65-6.93-12.35-1.6-1.6-4.16-2.78-6.03-2.41-.21-.6-.63-.96-.94-1.66m11.04 18c.8-.31 1.35-.39 2.11-1.12 1.92 1.92 6.26 3.06 8.29 3.46-1.21.7-5.02 1-6.78 1.15-1.2.1-1.04.16-2.26.02-.9-.1-1.3-.07-2.26-.54-3.06-1.46-3.73-5.67-.3-5 .02.81-.13 1.3-.91 2.11.75.63.8.44 2.11-.08m.6 10.68c-1.7.84-5.47 2.31-7.08.7-1.4-1.4-.12-1.57-2.26-.36-.1.05-.77.33-.9.37-3.18 1.03-4.45-1.28-7.4-4.22-1.12-1.13-.67-3-.3-4.22-.46-.22-.16-.07-.6-.1-.38-.04-.29.04-.75-.05-1.84-.37-6.44-5.02-2.11-9.35 1.52-1.52 1.72-.67 1.63-2.26-.16-2.97 5.99-7 8.62-6.86 3.01.15 4.06.82 6.03 2.79 1.53-.3 1.5-.74 3.31-.49a6.03 6.03 0 0 1 5.36 6.22c-.01 4.97-2.64 5.37-4.9 6.78.18-.82 2.21-1.98-.9-3.92-.14.81-.12.23.28.68.55.62.35.32.77.98l-.6-.16c-1.83-.39-3.82 1.1-2.71 3.63 1.91 4.34 5.69 3.04 7.83 3.46a16.4 16.4 0 0 1-11.76 3.7c-1.03-.08-1-.55-1.8-.08.83.52 1.55.47 2.4.57 2.08.24 5.16-.36 7.24-1.07.98-.33 1.55-.7 2.41-1.36 2.56-1.93 1.96-1.9 4.82-2.32.77-.1 1.73-.45 2.41-.34-.93.79-1.65 1.05-2.7 2.1-1.82 1.82-1.61 2.83-6.34 5.17m14.62 5.44a6.5 6.5 0 0 1 5.41 4.32s.07.62.54 1.28c1.6 2.23-.82 10.12-8.66 9.64-5.52-1.65-8.95-5.38-10.03-11.08-.12-3.85.22-7.35 2.5-11 .13.69.15 1.25.75 1.96-.69.71-.78 1.65-.83 2.56-.1 1.77.38 4.17 1.87 5.31 1.29 1 1.57.8 2.72 1.02.18.9-.1 1.18.33 2.1 1.6 3.46 5 4.02 6.9 2.12.98-.98 1.38-4.52-1.65-5.04-.7-.13-1-.12-1.65.52.92.43 1.63-.47 2.86.75.68.69.68 2.63 0 3.32-2.25 2.24-6.28-.64-5.97-3.62.08-.68.42-.97.77-1.66.6-1.2 1.03-2.7 4.14-2.5m-9.19-3.98c3.5 3.5 4.58 1.88 6.03 2.1-1.05 1.7-1.17 4.93-2.86 4.99-2.13.07-3.14-2.32-3.45-3.93-.21-1.04.08-2.17.28-3.16m46.57 14.32c-3.5-3.5-3.1-3.52-7.38-6.35-5.34-3.55-10.24-6-16.58-5.79-.72.02-1.25.18-1.96.32-1.12.22-2.7.65-3.77 1.72l-.15-.15c1.13-1.12 1.43-2.92 5.28-3.71.83-.18 2.15-.3 3-.3.7.02.86.1 1.52.15.65.06.84.04 1.5.14 7.78 1.11 12.03 4.85 16.53 10.8.69.9 1.36 2.22 2.16 3.02zm7.53 20.2c-.6.11-.33-.03-.9.3l-.26-6.33c-.99-9.86-8.6-21.07-16.92-27a31 31 0 0 0-12.81-5.65c-4.28-.86-9.12-.71-12.96 1.68-2.74 1.7-5.33 6.2-8.6 2.93-1.21-1.21-2.72-2.95-1.65-4.67.62 2.02 2.33 3.77 4.67 3.75 1.27-.02 1.16.04 1.81-.58-1.19-.56-2.26.75-4.37-1.36a5 5 0 0 1-1.26-1.96c-.24-1 .22-1.22 1.1-2.1.51 1.43 1.27 1.87 2.87 1.7 1.85-.17 5.64-2.22 9.35-2.95 5.85-1.14 10.62.13 16.43 2.93 6.12 2.96 8.22 5.33 12.95 10.07 5.28 5.28 9.9 17.16 10.55 24.56l.01.16.03 1.65-.04.9c0 .78.15 1.26 0 1.97m.76-3.17c-.29-1.44.26-3.78-1.36-8.6a108 108 0 0 0-1.5-4.21c-.58-1.52-.91-2.8-1.7-4.37-.73-1.48-1.43-2.69-2.27-4.22-4.74-8.72-16.8-17.13-26.48-18.59-9.38-1.41-13.56 3.13-17.18 3.17-1.23.01-1.31-.42-1.96-1.46 3.45-2.15 5.65-3.45 9.2-4.2 3.94-.82 7.62-.85 11.6-.33 3.52.46 8.59 2.13 11.6 3.83 6.24 3.53 8.23 5.19 13.56 11.1 2.39 2.64 4 6.23 5.35 9.34.99 2.29 2.15 8.8 1.97 11.46-.04.56-.11.63-.15 1.2-.1 1.56.12 1.22-.2 3.47-.11.73-.14 1.83-.48 2.4m2.41 2.41c-.61.2-1.19.4-1.8.3.43-2.2.51-4.24.92-6.48l1.48-6.48c2.71-8.57 9.79-18.47 19.14-20.78.94-.23 1.34-.32 2.27-.45 1.73-.24 4.24-.65 5.72.33 3.2 2.1 1.8 4.06-1.5 4.7-3.78.71-7.23 1.15-10.86 3.56a36 36 0 0 0-5.57 4.35 35 35 0 0 0-6.87 10.4 56 56 0 0 0-1.98 5.28c-1.04 3.17-.64 3.73-.95 5.27m16.28-18.69c2.4-.79 6.97-2.07 9.2.15.94.95 1.5 1.3 1.59 2.72.09 1.47-.4.94-.24 1.96 1.24.72 1.39-.43 3.17 1.35 1.65 1.66 2.2 4.16 1.45 5.89-.58 1.33-.7.9-1.45 1.65-.94.93.58 1.83-2.12 4.52-1.3 1.34-2.46 1.41-4.03 1.4-.91.14-1.36.27-2.3.22-6.88-.24-8.35-5.92-6.03-8.25.53-.52.7-.48 1.21-.9.53.85.3.9 1.2 1.8 1.66 1.65 4.42-3.63-1.5-5.03a10 10 0 0 0-2.71-.28c-1.64.2-3.89.53-5.43 2 .5-2.74 8.15-4.22 11.3-1.06.9.89 1.53 1.66 1.5 3.17 0 .37-.1.85-.24 1.21-.34.77-.3.5-.95 1.04l.3.3c3.97-2.3.12-8.88-6.63-8.18-1.16.12-3.13.51-4.22 1.56-.14-.88.01-.55.94-2.27a9.7 9.7 0 0 1 5.99-4.97m13.11-5.69c-.44-.06-.51-.17-1.05-.25-.41-.05-.58-.05-1.06-.1-3.57-.44-10.1 1.53-12.8 4.24-3.54 3.53-5.23 6.3-7.12 10.55-2.22 4.98-1.74 4.81-3.14 9.34-.65.13-.95.18-1.66.24-.58.06-1.16.08-1.66.36-.3-.53-.18-.64-.1-1.2l.86-3.77c1.25-3.72 2.35-6.58 4.55-10.1 3.12-4.97 8.52-9.7 13.68-11.46 4.75-1.61 10.7-1.37 10.35-4.97-.1-.91-.46-1.12-1.3-1.96.54-.08 2.46.35 3.01.9 2.9 2.9-.24 8.52-2.56 8.18m1.5.42c3.19-1.98 3.47-4.6 2.4-7.84l-.13-.45c1.8 1.53 3.17.91 2.52 5.28-.09.59-.04.68-.3 1.35-1.54 3.85-3.3 2.02-4.48 1.66Zm4.37 2.42c-.43-.53-.53-.4-1.2-1.07.98-.34 1.53-1.23 1.94-2.1.55-1.16.42-1.55.63-2.57 1.88 1.18 4.76 2.87 5.16 5.58.17 1.16.14 1.78-.94 2.86a4.8 4.8 0 0 0-4.67-1.35c-.43-.5-.48-.8-.92-1.35m13.87 4.96c.13.61.1 1.14.09 1.81-.1 6.24-10.46 9.82-13.95 6.33-1.5-1.5-2.74-3.1-2.64-5.27.18-4.06 3.89-7.95 7.61-4.22 3.07 3.07-.67 7.77-3.01 5.42-1.3-1.3-.69-1.96-.69-1.96.18-.77.46.13.08-.75-2.51.92 1.4 6.14 4.53 3.02 1.46-1.47 1.43-4.53 0-6.03 2.55-1.59 1.72-4.9-.46-7.09-2.3-2.31-1.83-1.42-3.91-2.71-.08-.36-.2-1.94-.15-2.26.58.34.34.15.9.36 5.61 2.13 10.35 7.63 11.6 13.35m12.21-13.53c-2.8 1.27-1.93.13-4.37 1.48-1.06.59-3.2.98-4.37 1.14l-4.37.45c-.96.09-3.48.06-4.37-.24-.83-.27-3.25-2.93-6.63-3.56-1.32-.25-.97.17-2.26-1.11.73-.15 1.72.14 2.56.22 2.54.24 5.46.94 8 .91 1.82-.02 3.43.3 5.27.14 1.32-.12 4.54-.07 5.42-.82-.87-.74-1.77-.3-2.71-.39-1.6-.13-7.03-1.46-8.14-.82.63.36 5.17.89 5.73 1.21-1.96.39-7.94-.1-10.1-.51-4.84-.92-6.17.24-10.1-2.2 1.15-.36 1.6-.17 3.32-.07l6.93.75c.88.14 2.8.77 3.47.67-.26-.61-1.22-.85-1.96-1.04-1.48-.38-2.93-.79-4.52-.84l-9.05-.14c-1.06.06-.91.18-2.26-.09 1.5-1.49 3.14-2.39 4.83-4.83a3.7 3.7 0 0 1 2.26-1.64c4.76-1.5 8.33-.2 12.96 2.14.98.5 1.54.67 2.56 1.25 6.24 3.56 12.5 5.96 18.24.22.51 2.6-3.6 6.48-6.33 7.71Z"/><path d="m64.5 62.63.54-.19 4.71-2.27v-.48l-.64-.02-4.27 2.28zm25.1-11.48v.07q-.03-.05 0-.07m-8.3 11.6v.08q-.02-.06 0-.08m-7.83-7.15q-.03-.06 0-.08zM62.32 42.25v.1s-.04-.1 0-.1m48.23-10.85c.02 0 .02.07 0 .1zM51.91 19.2l.16-.16c.73.74 1.96 1.88 2.86 1.36l-5.73-3.92c-.19 1.22 2.1 3 3.47 4.37 2.1 2.11 5.41 3.52 7.99 4.98 1.18.67 1.94 1.32 2.7 1.2-2.51-2.52-7-3.4-11.44-7.83m-39.49 9.34c-1.62-1.62-1.49-1.4-2.53-3.47-1.34-2.64.18-1.35-.79-2.56-.75 2.45 1.64 4.96 3.32 6.63 3.08 3.08 9.94 2.95 12.36.9-1.14-.22-4.08 1.12-6.18.94-1.69-.14-4.6-.85-6.18-2.44"/><path d="M17.7 22.06c-.05.35.47-.17-.3.6.04-.32-.27.07.3-.6m3.47 7.38h.3l.76-.1c-1.17-1.06-3.3.01-4.64-3.36-.96-2.45.33-3.25 2.37-4.98l-.3-.3c-.7.6-1.24.67-1.96 1.36.04-.2 0-.14.13-.45.53-1.24 1.74-2.32 2.59-3.17l-.3-.3c-1.26 1.25-1.92 1.84-2.68 3.17-.36.6-.54.91-.57 1.5-.27 6.2 2.85 5.8 4.3 6.63"/><path d="M21.17 29.44c-1.28.74-4.88-.64-6.8-2.55a15 15 0 0 1-2.85-4.98c-.2-.84.15-1.03-.3-1.81-1.18 2.05 2.7 8.68 6.78 9.68.74.18 1.09.16 1.81.25.77.1 1.26.12 1.96-.28l-.3-.3z"/><path d="m16.95 27.03.3-.3c-1.72-1.72-2.07-2.73-2.29-4.52-.17-1.35.01-3.26 1.08-4.52l-.3-.3c-1.3 1.35-1.36 3.39-1.28 4.82.1 1.82.7 3.03 2.49 4.82m6.03 6.33c.58.34.57.29 1.8-.1 1.8-.56 4.55-2.03 5.88-3.36l-.3-.3c-2.79 2.36-7.2 3.65-7.38 3.76"/></g></svg>