<svg fill="#1C1C1C" xmlns="http://www.w3.org/2000/svg" xml:space="preserve" fill-rule="evenodd" clip-rule="evenodd" image-rendering="optimizeQuality" shape-rendering="geometricPrecision" text-rendering="geometricPrecision" viewBox="-173.88 -173.88 17761.77 1871.77"><path fill-rule="nonzero" d="M16991 423c163 163 285 341 355 505V88c0-5-2-10-6-14q-6-6-15-6h-839c164 70 342 192 505 355m-721 532c67-111 151-219 251-319 102-103 213-188 326-256-150-130-306-224-447-274-62-21-120-34-173-38h-60c-60 5-111 25-147 61-37 37-57 87-61 148v60c3 52 16 111 38 172 49 141 143 297 273 446m629-528c-115 67-227 153-331 256-101 102-185 212-251 324 14 16 29 31 44 46 17 17 33 33 50 49 68-113 152-222 253-323 103-103 215-189 329-257-16-17-32-35-49-52-15-14-30-29-45-43m140 146c-114 66-225 151-327 254-101 100-184 209-250 320 149 129 303 221 443 270 61 22 120 35 172 38h60c61-4 111-24 148-61 36-36 56-87 61-148v-59c-4-53-17-111-39-173-48-139-140-293-268-441m374 618c1 18 1 35 0 53v191c0 24-10 46-26 62s-38 26-62 26h-191c-17 1-35 1-53 0h-1102c-24 0-46-10-62-26s-26-38-26-62V333c-1-19-1-36 0-53V88c0-24 10-45 26-61v-1c16-15 38-25 62-25h191c17-1 35-1 53 0h1102c24 0 46 10 62 25v1c16 16 26 37 26 61zm-594 264c-164-70-342-191-506-354v-1c-163-163-285-341-354-505v840c0 6 2 11 5 14h1c3 4 8 6 14 6zM15402 423c163 163 285 341 355 505V88c0-5-2-10-6-14q-6-6-15-6h-839c164 70 342 192 505 355m-721 532c67-111 151-219 251-319 102-103 213-188 326-256-150-130-306-224-447-274-62-21-120-34-173-38h-60c-60 5-111 25-147 61-37 37-57 87-61 148v60c3 52 16 111 38 172 49 141 143 297 273 446m629-528c-115 67-227 153-331 256-101 102-186 212-251 324 14 16 29 31 44 46 17 17 33 33 50 49 68-113 152-222 253-323 103-103 215-189 329-257-16-17-32-35-49-52h-1c-14-14-29-29-44-43m140 146c-114 66-225 151-327 254-101 100-184 209-250 320 149 129 303 221 442 270 62 22 120 35 173 38h60c60-4 111-24 148-61 36-36 56-87 61-148v-59c-4-53-17-111-39-173-48-139-140-293-268-441m374 618c1 18 1 35 0 53v191c0 24-10 46-26 62s-38 26-62 26h-191c-17 1-35 1-53 0h-1102c-24 0-46-10-62-26s-26-38-26-62V333c-1-19-1-36 0-53V88c0-24 10-45 26-61v-1c16-15 38-25 62-25h191c17-1 35-1 53 0h1102c24 0 46 10 62 25v1c16 16 26 37 26 61zm-594 264c-164-70-342-191-506-354v-1c-163-163-285-341-354-505v840c0 6 2 11 5 14h1c3 4 8 6 14 6zM13813 423c163 163 285 341 355 505V88c0-5-3-10-6-14q-6-6-15-6h-839c164 70 342 192 505 355m-721 532c67-111 151-219 251-319 102-103 212-188 326-256-150-130-307-224-447-274-62-21-120-34-173-38h-60c-60 5-111 25-147 61-37 37-57 87-62 148v60c4 52 17 111 39 172 49 141 143 297 273 446m629-528c-115 67-227 153-331 256-101 102-186 212-251 324 14 16 29 31 44 46 16 17 33 33 50 49 67-113 152-222 253-323 103-103 215-189 329-257-16-17-32-35-50-52-14-14-29-29-44-43m140 146c-114 66-225 151-327 254-101 100-184 209-250 320 149 129 303 221 442 270 62 22 120 35 173 38h60c60-4 111-24 148-61 36-36 56-87 61-148v-59c-4-53-17-111-39-173-48-139-140-293-268-441m374 618c1 18 1 35 0 53v191c0 24-10 46-26 62s-38 26-62 26h-191c-17 1-35 1-53 0h-1102c-24 0-46-10-62-26s-26-38-26-62V333c-1-19-1-36 0-53V88c0-24 10-45 26-61v-1c16-15 38-25 62-25h191c17-1 35-1 53 0h1102c24 0 46 10 62 25v1c16 16 26 37 26 61zm-595 264c-163-70-342-191-505-354v-1c-163-163-285-341-355-505v840c0 6 3 11 6 14q6 6 15 6zM12224 423c163 163 285 341 355 505V88c0-5-3-10-6-14q-6-6-15-6h-839c163 70 342 192 505 355m-722 532c67-111 151-219 252-319 102-103 212-188 326-256-150-130-307-224-447-274-62-21-120-34-173-38h-60c-60 5-111 25-147 61-37 37-57 87-62 148v60c4 52 17 111 39 172 49 141 143 297 272 446m630-528c-115 67-227 153-331 256-101 102-186 212-252 324 15 16 30 31 45 46 16 17 33 33 50 49 67-113 152-222 253-323 103-103 215-189 329-257-16-17-32-35-50-52-14-14-29-29-44-43m140 146c-114 66-225 151-327 254-101 100-184 209-250 320 149 129 303 221 442 270 62 22 120 35 173 38h60c60-4 111-24 148-61 36-36 56-87 61-148v-59c-4-53-17-111-39-173-48-139-140-293-268-441m374 618c1 18 1 35 0 53v191c0 24-10 46-26 62s-38 26-62 26h-191c-17 1-35 1-53 0h-1102c-24 0-46-10-62-26s-26-38-26-62V333c-1-19-1-36 0-53V88c0-24 10-45 26-61v-1c16-15 38-25 62-25h191c17-1 35-1 53 0h1102c24 0 46 10 62 25v1c16 16 26 37 26 61zm-595 264c-163-70-342-191-505-354v-1c-163-163-285-341-355-505v840c0 6 3 11 6 14q6 6 15 6zM10635 423c163 163 285 341 355 505V88c0-5-3-10-6-14q-6-6-15-6h-839c163 70 342 192 505 355m-722 532c67-111 151-219 252-319 102-103 212-188 326-256-150-130-307-224-447-274-62-21-120-34-173-38h-60c-60 5-111 25-147 61-37 37-57 87-62 148v60c4 52 17 111 39 172 49 141 143 297 272 446m630-528c-115 67-227 153-331 256-101 102-186 212-252 324 15 16 30 31 45 46 16 17 33 33 50 49 67-113 152-222 253-323 103-103 215-189 329-257-16-17-33-35-50-52-14-14-29-29-44-43m140 146c-114 66-225 151-327 254-101 100-184 209-250 320 148 129 303 221 442 270 62 22 120 35 173 38h60c60-4 111-24 147-61 37-36 57-87 62-148v-59c-4-53-17-111-39-173-48-139-140-293-268-441m374 618c1 18 1 35 0 53v191c0 24-10 46-26 62s-38 26-62 26h-191c-17 1-35 1-53 0H9623c-24 0-46-10-62-26s-26-38-26-62V333c-1-19-1-36 0-53V88c0-24 10-45 26-61v-1c16-15 38-25 62-25h191c17-1 35-1 53 0h1102c24 0 46 10 62 25v1c16 16 26 37 26 61zm-595 264c-163-70-342-191-505-354v-1c-163-163-285-341-355-505v840c0 6 3 11 6 14q6 6 15 6zM9046 423c163 163 285 341 355 505V88c0-5-3-10-6-14q-6-6-15-6h-839c163 70 342 192 505 355m-722 532c67-111 151-219 251-319 103-103 213-188 327-256-150-130-307-224-447-274-62-21-120-34-173-38h-60c-60 5-111 25-148 61-36 37-56 87-61 148v60c4 52 17 111 39 172 49 141 142 297 272 446m630-528c-115 67-227 153-331 256-102 102-186 212-252 324 15 16 29 31 45 46 16 17 33 33 50 49 67-113 152-222 253-323 103-103 215-189 329-257-16-17-33-35-50-52-14-14-29-29-44-43m140 146c-114 66-225 151-327 254-101 100-185 209-250 320 148 129 303 221 442 270 62 22 120 35 173 38h60c60-4 111-24 147-61 37-36 57-87 62-148v-59c-4-53-17-111-39-173-49-139-141-293-268-441m374 618c1 18 1 35 0 53v191c0 24-10 46-26 62s-38 26-62 26h-191c-17 1-35 1-53 0H8034c-24 0-46-10-62-26s-26-38-26-62V333c-1-19-1-36 0-53V88c0-24 10-45 26-61v-1c16-15 38-25 62-25h191c17-1 35-1 53 0h1102c24 0 46 10 62 25v1c16 16 26 37 26 61zm-595 264c-163-70-342-191-505-354v-1c-163-163-285-341-355-505v840c0 6 3 11 6 14q6 6 15 6zM7457 423c163 163 285 341 355 505V88c0-5-3-10-6-14h-1c-3-4-8-6-14-6h-839c163 70 342 192 505 355m-722 532c67-111 151-219 251-319 103-103 213-188 327-256-150-130-307-224-447-274-62-21-120-34-173-38h-60c-60 5-111 25-148 61-36 37-56 87-61 148v60c4 52 17 111 39 172 49 141 142 297 272 446m630-528c-115 67-227 153-331 256-102 102-186 212-252 324 15 16 29 31 45 46 16 17 33 33 50 49 67-113 152-222 253-323 103-103 215-189 329-257-16-17-33-35-50-52-14-14-29-29-44-43m140 146c-114 66-225 151-328 254-100 100-184 209-249 320 148 129 303 221 442 270 62 22 120 35 173 38h60c60-4 111-24 147-61 37-36 57-87 62-148v-59c-4-53-17-111-39-173-49-139-141-293-268-441m374 618c1 18 1 35 0 53v191c0 24-10 46-26 62s-38 26-62 26h-191c-17 1-35 1-53 0H6445c-24 0-46-10-62-26s-26-38-26-62V333c-1-19-1-36 0-53V88c0-24 10-45 26-61v-1c16-15 38-25 62-25h191c17-1 35-1 53 0h1102c24 0 46 10 62 25v1c16 16 26 37 26 61zm-595 264c-164-70-342-191-505-354v-1c-163-163-285-341-355-505v840c0 6 2 11 6 14q6 6 15 6zM5868 423c163 163 285 341 354 505V88c0-5-2-10-5-14h-1c-3-4-8-6-14-6h-840c164 70 342 192 506 355m-722 532c67-111 151-219 251-319 103-103 213-188 327-256-150-130-307-224-447-274-62-21-120-34-173-38h-60c-61 5-111 25-148 61-36 37-56 87-61 148v60c4 52 17 111 39 172 49 141 142 297 272 446m630-528c-115 67-227 153-331 256-102 102-186 212-252 324 15 16 29 31 44 46h1c16 17 33 33 50 49 67-113 152-222 253-323 103-103 214-189 329-257-16-17-33-35-50-52-15-14-29-29-44-43m140 146c-114 66-225 151-328 254-100 100-184 209-249 320 148 129 303 221 442 270 62 22 120 35 173 38h60c60-4 111-24 147-61 37-36 57-87 61-148v-59c-3-53-16-111-38-173-49-139-141-293-268-441m374 618c1 18 1 35 0 53v191c0 24-10 46-26 62s-38 26-62 26h-191c-17 1-35 1-53 0H4856c-24 0-46-10-62-26s-26-38-26-62V333c-1-19-1-36 0-53V88c0-24 10-45 26-61v-1c16-15 38-25 62-25h191c17-1 35-1 53 0h1102c24 0 46 10 62 25v1c16 16 26 37 26 61zm-595 264c-164-70-342-191-505-354v-1c-163-163-285-341-355-505v840c0 6 2 11 6 14q6 6 15 6zM4279 423c163 163 285 341 354 505V88c0-5-2-10-5-14h-1c-3-4-8-6-14-6h-840c164 70 342 192 506 355m-722 532c67-111 151-219 251-319 103-103 213-188 327-256-150-130-307-224-448-274-61-21-120-34-172-38h-60c-61 5-111 25-148 61-36 37-56 87-61 148v60c4 52 17 111 39 172 49 141 142 297 272 446m630-528c-115 67-227 153-331 256-102 102-186 212-252 324 15 16 29 31 44 46 17 17 34 33 51 49 67-113 152-222 253-323 103-103 214-189 329-257-16-17-33-35-50-52-15-14-29-29-44-43m140 146c-114 66-225 151-328 254-100 100-184 209-249 320 148 129 303 221 442 270 62 22 120 35 173 38h60c60-4 111-24 147-61 37-36 57-87 61-148v-59c-3-53-16-111-38-173-49-139-141-293-268-441m374 618c1 18 1 35 0 53v191c0 24-10 46-26 62s-38 26-62 26h-191c-17 1-35 1-53 0H3267c-24 0-46-10-62-26s-26-38-26-62V333c-1-19-1-36 0-53V88c0-24 10-45 26-61v-1c16-15 38-25 62-25h191c17-1 35-1 53 0h1102c24 0 46 10 62 25v1c16 16 26 37 26 61zm-595 264c-164-70-342-191-505-354v-1c-163-163-285-341-355-505v840c0 6 2 11 6 14q6 6 15 6zM2690 423c163 163 285 341 354 505V88c0-5-2-10-6-14-3-4-8-6-14-6h-840c164 70 342 192 506 355m-722 532c67-111 151-219 251-319 102-103 213-188 327-256-150-130-307-224-448-274-61-21-120-34-172-38h-60c-61 5-111 25-148 61-36 37-56 87-61 148v60c4 52 17 111 38 172 50 141 143 297 273 446m630-528c-115 67-228 153-331 256-102 102-186 212-252 324 14 16 29 31 44 46 17 17 34 33 51 49 67-113 152-222 253-323 103-103 214-189 329-257-16-17-33-35-50-52-15-14-29-29-44-43m140 146c-114 66-225 151-328 254-100 100-184 209-249 320 148 129 303 221 442 270 62 22 120 35 173 38h59c61-4 112-24 148-61 37-36 57-87 61-148v-59c-3-53-16-111-38-173-49-139-141-293-268-441m374 618c1 18 1 35 0 53v191c0 24-10 46-26 62s-38 26-62 26h-191c-18 1-35 1-53 0H1677c-24 0-45-10-61-26s-26-38-26-62V333c-1-19-1-36 0-53V88c0-24 10-45 26-61v-1c16-15 37-25 61-25h192c17-1 35-1 53 0h1102c24 0 46 10 62 25v1c16 16 26 37 26 61zm-595 264c-164-70-342-191-505-354v-1c-163-163-285-341-355-505v840c0 6 2 11 6 14 4 4 9 6 14 6zM1100 423c164 163 285 341 355 505V88c0-5-2-10-6-14-3-4-8-6-14-6H595c164 70 342 192 505 355M379 955c67-111 151-219 251-319 102-103 213-188 327-256-150-130-307-224-448-274-61-21-120-34-172-38h-60c-61 5-111 25-148 61-36 37-56 87-61 148v60c4 52 17 111 38 172 50 141 143 297 273 446m630-528c-115 67-228 153-331 256-102 102-186 212-252 324 14 16 29 31 44 46 17 17 34 33 51 49 67-113 152-222 253-323 103-103 214-189 329-257-16-17-33-35-50-52-15-14-29-29-44-43m140 146c-114 66-225 151-328 254-100 100-184 209-249 320 148 129 303 221 442 270 62 22 120 35 173 38h59c61-4 112-24 148-61 37-36 57-87 61-148v-59c-3-53-16-111-38-173-49-139-141-293-268-441m374 618c1 18 1 35 0 53v191c0 24-10 46-26 62s-38 26-62 26h-191c-18 1-35 1-53 0H88c-24 0-45-10-61-26h-1c-15-16-25-38-25-62V333c-1-19-1-36 0-53V88c0-24 10-45 25-61l1-1C43 11 64 1 88 1h192c17-1 34-1 53 0h1102c24 0 46 10 62 25v1c16 16 26 37 26 61zm-595 264c-164-70-342-191-505-354v-1C260 937 138 759 68 595v840c0 6 2 11 6 14 4 4 9 6 14 6z"/></svg>